<svg width="25" height="25" viewBox="0 0 25 25" fill="none" xmlns="http://www.w3.org/2000/svg">
<path d="M23.0986 0.603386C23.0129 0.347067 22.7997 0.176188 22.5863 0.133606C19.9805 -0.464471 14.2137 0.945419 9.98462 4.36273H9.94176C6.0544 3.20943 0.629673 6.54102 0.0741788 7.86547C0.0134662 7.98841 -0.0107525 8.12618 0.00438936 8.26245C0.0195312 8.39873 0.0733996 8.52781 0.159618 8.63443C0.330497 8.84789 0.629673 8.93333 0.885992 8.89075C2.12473 8.63443 4.21786 8.46355 5.07226 10.044C3.5772 12.3935 2.42363 15.1701 1.56951 19.1427V19.3138C1.31346 19.9968 1.14231 20.6809 1.01429 21.3638C0.928574 21.663 0.886267 22.0905 1.22802 22.6454C1.86868 23.6707 3.74808 24.824 4.47445 24.824C5.11511 24.824 5.58489 24.1833 6.05467 23.5424C6.22583 23.3292 6.43929 22.9872 6.56731 22.8594C9.98462 22.432 11.9926 20.2108 14.1283 17.8614L14.4275 17.5625C14.6835 17.2636 14.6835 16.7932 14.3846 16.5372C14.0854 16.2809 13.6159 16.2809 13.3599 16.58L13.0607 16.8789C10.925 19.2287 9.25879 21.0652 6.31127 21.407C5.71319 21.4924 5.32885 22.005 4.85879 22.6457C4.73077 22.8168 4.51704 23.1155 4.38901 23.2864C3.83379 23.0732 2.5522 22.1759 2.4239 21.7487C2.4239 21.7059 2.4239 21.663 2.46676 21.663C2.89396 19.0147 4.81621 15.0418 8.78901 12.6072C10.6684 11.4537 13.4451 11.6671 15.6662 11.7951C17.247 11.9234 18.486 12.0089 19.2975 11.6671C20.1948 12.3935 20.7069 13.3331 20.878 14.5718C21.2624 17.1347 20.0239 20.2962 19.0412 22.2182C18.4426 18.8435 17.2896 13.077 10.9676 12.6072C10.5832 12.5647 10.1986 12.8633 10.1986 13.2902C10.156 13.6748 10.4549 14.0594 10.8821 14.0594C16.3071 14.4438 17.1615 19.6553 17.7165 22.7309C17.8451 23.3715 17.9299 23.927 18.0585 24.3114C18.1437 24.5677 18.3574 24.7814 18.6137 24.8237H18.7843C18.9981 24.8237 19.2118 24.7386 19.3398 24.5674C20.1514 23.5853 23.0132 18.5017 22.4151 14.3155C22.2019 12.735 21.5181 11.4534 20.3646 10.5564C21.9882 7.52372 23.7824 2.5685 23.0986 0.603386ZM2.93654 7.22454C4.4316 6.32756 6.65302 5.38773 8.66044 5.55888L8.48956 5.72976C7.54973 6.71245 6.73819 7.65201 5.96923 8.67729C5.28599 7.82262 4.26072 7.30998 2.93654 7.22454ZM18.8275 10.2575C18.3574 10.471 16.9475 10.3855 15.7942 10.3001C13.3599 10.1292 10.3267 9.91575 8.01978 11.3251C6.73819 12.1369 5.54231 13.1619 4.51704 14.3152C5.07226 12.8627 5.71319 11.6666 6.39643 10.6416C6.48187 10.5561 6.56731 10.4278 6.60989 10.2998C7.50715 8.93278 8.53215 7.82207 9.51456 6.75421C13.1885 2.8674 19.169 1.24432 21.7745 1.50036C21.9028 3.12372 20.5357 7.22454 18.8275 10.2575Z" fill="#76CDD6"/>
<path d="M10.839 15.5116C9.68567 16.8361 6.86643 18.0746 5.84116 18.2029C5.45682 18.2457 5.15792 18.6301 5.20023 19.0147C5.24308 19.399 5.54198 19.6553 5.9266 19.6553H6.01204C7.46451 19.4845 10.5826 18.0746 11.9497 16.4941C12.206 16.1954 12.1629 15.7254 11.864 15.4693C11.5653 15.1702 11.0953 15.2125 10.839 15.5116ZM15.9651 3.55093L15.8793 3.59379C15.4953 3.76467 15.367 4.19187 15.5379 4.57648C15.6659 4.83253 15.9225 5.00368 16.1788 5.00368C16.2645 5.00368 16.3923 5.00368 16.4777 4.91797L16.5634 4.87511C16.9475 4.70423 17.0758 4.27703 16.9052 3.89269C16.8685 3.8063 16.8145 3.72839 16.7464 3.6638C16.6783 3.59921 16.5977 3.54933 16.5095 3.51727C16.4213 3.48521 16.3274 3.47165 16.2338 3.47745C16.1401 3.48324 16.0486 3.50825 15.9651 3.55093ZM13.9148 6.37016C14.2989 6.11385 14.3846 5.64407 14.1282 5.30203C13.9148 4.96055 13.4447 4.87484 13.103 5.13143L13.0173 5.17401C12.6761 5.38747 12.5903 5.85753 12.8467 6.19901C12.975 6.41275 13.231 6.49819 13.4447 6.49819C13.6585 6.49819 13.7868 6.45588 13.9148 6.37016ZM18.9552 2.52566C18.5277 2.61137 18.3142 2.99544 18.4 3.38006C18.4857 3.72181 18.784 3.93555 19.1263 3.93555H19.2972C19.6815 3.84984 19.9379 3.46549 19.8524 3.08115C19.7673 2.69654 19.3824 2.44049 18.9552 2.52566ZM17.8873 5.25945C17.5458 5.47291 17.4601 5.94297 17.7164 6.28473C17.845 6.49846 18.1011 6.58363 18.3145 6.58363C18.4425 6.58363 18.6137 6.54077 18.742 6.4556H18.7843C19.1263 6.24187 19.1689 5.77209 18.9554 5.47291C18.6991 5.1317 18.2291 5.04599 17.8873 5.25945ZM15.837 6.7122C15.4527 6.96852 15.367 7.4383 15.5804 7.78033C15.709 7.99379 15.9648 8.07896 16.1788 8.07896C16.3068 8.07896 16.4777 8.03637 16.6057 7.95093L16.6483 7.90808C16.9906 7.69461 17.0758 7.22456 16.8195 6.88308C16.6057 6.54104 16.1362 6.45588 15.837 6.7122ZM13.6582 8.20725C13.3164 8.42071 13.231 8.89049 13.4876 9.23225C13.6159 9.44571 13.8717 9.53115 14.0854 9.53115C14.2369 9.5286 14.3849 9.4843 14.5129 9.40313L14.5554 9.36055C14.8972 9.14681 14.9395 8.67703 14.7263 8.37813C14.47 8.0361 14.0002 7.95093 13.6582 8.20725ZM11.2662 6.7122L11.1804 6.75478C10.839 6.96852 10.7532 7.4383 11.0098 7.78033C11.1379 7.99379 11.3939 8.07896 11.6079 8.07896C11.7593 8.07644 11.9071 8.03214 12.0348 7.95093L12.0777 7.90808C12.4197 7.69461 12.5052 7.22456 12.2486 6.88308C12.0777 6.54104 11.6079 6.45588 11.2662 6.7122Z" fill="#76CDD6"/>
</svg>
