<svg width="25" height="25" viewBox="0 0 25 25" fill="none" xmlns="http://www.w3.org/2000/svg">
<g clip-path="url(#clip0_22_283)">
<path d="M9.30077 22.3905C6.91796 22.3905 4.18749 22.0819 1.05859 21.3593C0.769179 21.2943 0.50916 21.136 0.318579 20.9087C0.127999 20.6814 0.0174289 20.3978 0.0038997 20.1014C-0.0312566 19.4804 0.339837 18.9218 0.925775 18.7186C4.71484 17.3866 13.7031 13.7616 15.3047 8.86317C15.9648 6.83973 17.8437 5.52723 19.8906 5.68348C20.4609 5.72645 20.9492 5.87098 21.3398 6.10926C21.4844 6.19911 21.6328 6.28504 21.7851 6.36708C22.6211 6.81629 24.1953 8.10536 24.7773 10.0858C25.2305 11.6249 25 13.2343 24.0898 14.871C22.3711 17.9647 18.332 22.3905 9.30077 22.3905ZM1.70702 19.9999C15.5156 23.0858 20.8476 17.6796 22.8008 14.16C23.5117 12.8788 23.6992 11.6483 23.3633 10.5038C22.8984 8.92957 21.5625 7.92176 21.0859 7.66786C20.9062 7.57411 20.7344 7.47254 20.5625 7.36708C20.375 7.24989 20.1094 7.17958 19.7773 7.15614C18.418 7.05067 17.1484 7.9452 16.6992 9.32411C14.9961 14.535 6.70702 18.2147 1.70702 19.9999Z" fill="#FCE15B"/>
<path d="M22.1641 8.23047C21.9766 8.23047 21.7891 8.16016 21.6445 8.01563C21.3555 7.73047 21.3555 7.26172 21.6445 6.97657C22.5 6.1211 22.4531 4.78125 21.5352 3.86328C21.3982 3.72504 21.3214 3.53833 21.3214 3.34375C21.3214 3.14918 21.3982 2.96247 21.5352 2.82422C21.8242 2.53906 22.2891 2.53516 22.5742 2.82422C24.0586 4.3086 24.1055 6.58985 22.6836 8.01563C22.5391 8.16016 22.3516 8.23047 22.1641 8.23047ZM22.5039 16.7031C22.375 16.7031 22.2422 16.668 22.1211 16.5977C21.8633 16.4414 20.6289 15.6641 20.0508 14.8086C19.5078 15.0469 18.7148 15.2617 17.7344 15.1445C17.4961 15.1172 17.2891 14.9766 17.1758 14.7656C17.0625 14.5586 17.0547 14.3047 17.1602 14.0898C17.5703 13.2539 17.8945 12.2734 17.9102 11.8672C17.7344 11.7969 17.4922 11.7266 17.2539 11.6563C16.2891 11.3672 14.9648 10.9727 14.9648 9.83203C14.9648 9.42578 15.293 9.09766 15.6992 9.09766C16.082 9.09766 16.3945 9.38672 16.4297 9.75781C16.6172 9.92969 17.3203 10.1406 17.6719 10.2461C18.0859 10.3711 18.4727 10.4844 18.7695 10.6445C19.6289 11.1133 19.4414 12.3711 18.9648 13.625C19.2187 13.5664 19.4297 13.4805 19.5937 13.3945C20.1836 13.0938 20.9141 13.3203 21.2187 13.9023C21.4453 14.332 22.3281 15.0039 22.8828 15.3398C23.2305 15.5508 23.3398 16.0039 23.1289 16.3516C22.9961 16.5781 22.7539 16.7031 22.5039 16.7031ZM14.7773 19.2813C14.0937 19.2813 13.4141 19.1094 12.7969 18.7695C12.7099 18.7247 12.6327 18.6629 12.57 18.5878C12.5072 18.5127 12.4601 18.4258 12.4314 18.3322C12.4027 18.2386 12.393 18.1403 12.4028 18.0429C12.4127 17.9455 12.4419 17.8511 12.4888 17.7652C12.5356 17.6793 12.5992 17.6036 12.6757 17.5426C12.7523 17.4816 12.8402 17.4365 12.9344 17.41C13.0287 17.3834 13.1272 17.376 13.2243 17.3881C13.3215 17.4002 13.4152 17.4316 13.5 17.4805C14.125 17.8203 14.8437 17.8984 15.5234 17.6992C15.8594 17.6025 16.1728 17.4397 16.4451 17.2203C16.7174 17.001 16.9433 16.7296 17.1094 16.4219C17.1542 16.3349 17.216 16.2578 17.2911 16.195C17.3662 16.1322 17.4531 16.0851 17.5467 16.0564C17.6403 16.0277 17.7386 16.018 17.836 16.0278C17.9334 16.0377 18.0278 16.0669 18.1137 16.1138C18.1996 16.1607 18.2753 16.2242 18.3363 16.3008C18.3973 16.3773 18.4424 16.4652 18.4689 16.5595C18.4955 16.6537 18.5029 16.7522 18.4908 16.8493C18.4787 16.9465 18.4473 17.0402 18.3984 17.125C17.8672 18.0938 16.9922 18.8008 15.9336 19.1094C15.5586 19.2266 15.1641 19.2813 14.7773 19.2813Z" fill="#FCE15B"/>
</g>
<defs>
<clipPath id="clip0_22_283">
<rect width="25" height="25" fill="white"/>
</clipPath>
</defs>
</svg>
