<svg width="804" height="145" viewBox="0 0 804 145" fill="none" xmlns="http://www.w3.org/2000/svg">
<path d="M160.875 75V22.125H182.175C188.425 22.125 193.7 23.2 198 25.35C202.3 27.45 205.55 30.475 207.75 34.425C210 38.325 211.125 43.025 211.125 48.525C211.125 53.975 210 58.675 207.75 62.625C205.55 66.575 202.3 69.625 198 71.775C193.7 73.925 188.425 75 182.175 75H160.875ZM174.75 63.75H181.275C186.725 63.75 190.75 62.5 193.35 60C196 57.5 197.325 53.675 197.325 48.525C197.325 43.325 196 39.5 193.35 37.05C190.75 34.55 186.725 33.3 181.275 33.3H174.75V63.75ZM218.719 75V36.9H232.069V75H218.719ZM218.419 31.5V19.5H232.444V31.5H218.419ZM259 91.8C255.2 91.8 251.85 91.45 248.95 90.75C246.1 90.1 243.525 89.075 241.225 87.675L243.55 78.225C244.9 79.025 246.375 79.7 247.975 80.25C249.575 80.8 251.225 81.2 252.925 81.45C254.675 81.75 256.325 81.9 257.875 81.9C261.075 81.9 263.45 81.15 265 79.65C266.55 78.2 267.325 76.125 267.325 73.425V66.75H268.075C267.275 68.95 265.7 70.725 263.35 72.075C261 73.375 258.4 74.025 255.55 74.025C252.15 74.025 249.175 73.275 246.625 71.775C244.125 70.225 242.15 68.025 240.7 65.175C239.3 62.325 238.6 58.95 238.6 55.05C238.6 51.15 239.3 47.775 240.7 44.925C242.15 42.075 244.125 39.9 246.625 38.4C249.175 36.85 252.15 36.075 255.55 36.075C258.5 36.075 261.1 36.725 263.35 38.025C265.6 39.325 267.125 41.05 267.925 43.2L267.325 43.05L268.15 36.9H280.975C280.775 38.6 280.625 40.325 280.525 42.075C280.425 43.825 280.375 45.55 280.375 47.25V71.925C280.375 78.325 278.55 83.225 274.9 86.625C271.25 90.075 265.95 91.8 259 91.8ZM259.675 64.125C261.975 64.125 263.8 63.35 265.15 61.8C266.5 60.25 267.175 58 267.175 55.05C267.175 52.05 266.5 49.8 265.15 48.3C263.8 46.75 261.975 45.975 259.675 45.975C257.325 45.975 255.475 46.75 254.125 48.3C252.775 49.8 252.1 52.05 252.1 55.05C252.1 58 252.775 60.25 254.125 61.8C255.475 63.35 257.325 64.125 259.675 64.125ZM288.592 75V36.9H301.942V75H288.592ZM288.292 31.5V19.5H302.317V31.5H288.292ZM329.698 75.825C324.298 75.825 320.223 74.55 317.473 72C314.773 69.4 313.423 65.475 313.423 60.225V46.725H306.298V36.9H313.423V27.9L326.773 24.75V36.9H336.073V46.725H326.773V59.7C326.773 61.9 327.273 63.375 328.273 64.125C329.273 64.825 330.473 65.175 331.873 65.175C332.723 65.175 333.448 65.125 334.048 65.025C334.698 64.875 335.373 64.675 336.073 64.425V74.7C334.973 75.15 333.873 75.45 332.773 75.6C331.723 75.75 330.698 75.825 329.698 75.825ZM356.253 75.825C352.953 75.825 350.053 75.05 347.553 73.5C345.053 71.9 343.078 69.6 341.628 66.6C340.228 63.6 339.528 60.05 339.528 55.95C339.528 51.8 340.228 48.25 341.628 45.3C343.078 42.3 345.053 40.025 347.553 38.475C350.053 36.875 352.953 36.075 356.253 36.075C359.203 36.075 361.853 36.775 364.203 38.175C366.603 39.575 368.178 41.4 368.928 43.65H368.178L369.003 36.9H381.828C381.678 38.6 381.528 40.325 381.378 42.075C381.278 43.825 381.228 45.55 381.228 47.25V75H368.028L367.878 68.55H368.778C368.028 70.75 366.453 72.525 364.053 73.875C361.703 75.175 359.103 75.825 356.253 75.825ZM360.528 65.925C362.778 65.925 364.603 65.15 366.003 63.6C367.403 62 368.103 59.45 368.103 55.95C368.103 52.45 367.403 49.925 366.003 48.375C364.603 46.775 362.778 45.975 360.528 45.975C358.278 45.975 356.453 46.775 355.053 48.375C353.653 49.925 352.953 52.45 352.953 55.95C352.953 59.45 353.628 62 354.978 63.6C356.378 65.15 358.228 65.925 360.528 65.925ZM389.52 75V19.8H402.87V75H389.52ZM411.126 75V36.9H424.476V75H411.126ZM410.826 31.5V19.5H424.851V31.5H410.826ZM447.357 75.825C443.807 75.825 440.582 75.475 437.682 74.775C434.832 74.025 432.407 73.025 430.407 71.775L433.632 63.075C435.582 64.175 437.757 65.075 440.157 65.775C442.607 66.475 445.032 66.825 447.432 66.825C449.332 66.825 450.707 66.55 451.557 66C452.457 65.4 452.907 64.625 452.907 63.675C452.907 62.925 452.632 62.325 452.082 61.875C451.532 61.425 450.707 61.1 449.607 60.9L441.507 59.475C438.307 58.875 435.807 57.7 434.007 55.95C432.257 54.15 431.382 51.825 431.382 48.975C431.382 46.375 432.082 44.125 433.482 42.225C434.882 40.275 436.882 38.775 439.482 37.725C442.082 36.625 445.157 36.075 448.707 36.075C451.607 36.075 454.357 36.4 456.957 37.05C459.607 37.7 461.907 38.725 463.857 40.125L460.407 48.6C458.857 47.55 457.032 46.7 454.932 46.05C452.882 45.35 450.957 45 449.157 45C447.007 45 445.482 45.325 444.582 45.975C443.682 46.575 443.232 47.325 443.232 48.225C443.232 48.925 443.482 49.525 443.982 50.025C444.482 50.475 445.282 50.8 446.382 51L454.482 52.425C457.782 52.975 460.307 54.125 462.057 55.875C463.857 57.575 464.757 59.9 464.757 62.85C464.757 65.6 464.007 67.95 462.507 69.9C461.057 71.8 459.032 73.275 456.432 74.325C453.832 75.325 450.807 75.825 447.357 75.825ZM485.672 75.825C482.372 75.825 479.472 75.05 476.972 73.5C474.472 71.9 472.497 69.6 471.047 66.6C469.647 63.6 468.947 60.05 468.947 55.95C468.947 51.8 469.647 48.25 471.047 45.3C472.497 42.3 474.472 40.025 476.972 38.475C479.472 36.875 482.372 36.075 485.672 36.075C488.622 36.075 491.272 36.775 493.622 38.175C496.022 39.575 497.597 41.4 498.347 43.65H497.597L498.422 36.9H511.247C511.097 38.6 510.947 40.325 510.797 42.075C510.697 43.825 510.647 45.55 510.647 47.25V75H497.447L497.297 68.55H498.197C497.447 70.75 495.872 72.525 493.472 73.875C491.122 75.175 488.522 75.825 485.672 75.825ZM489.947 65.925C492.197 65.925 494.022 65.15 495.422 63.6C496.822 62 497.522 59.45 497.522 55.95C497.522 52.45 496.822 49.925 495.422 48.375C494.022 46.775 492.197 45.975 489.947 45.975C487.697 45.975 485.872 46.775 484.472 48.375C483.072 49.925 482.372 52.45 482.372 55.95C482.372 59.45 483.047 62 484.397 63.6C485.797 65.15 487.647 65.925 489.947 65.925ZM533.563 75.825C530.013 75.825 526.788 75.475 523.888 74.775C521.038 74.025 518.613 73.025 516.613 71.775L519.838 63.075C521.788 64.175 523.963 65.075 526.363 65.775C528.813 66.475 531.238 66.825 533.638 66.825C535.538 66.825 536.913 66.55 537.763 66C538.663 65.4 539.113 64.625 539.113 63.675C539.113 62.925 538.838 62.325 538.288 61.875C537.738 61.425 536.913 61.1 535.813 60.9L527.713 59.475C524.513 58.875 522.013 57.7 520.213 55.95C518.463 54.15 517.588 51.825 517.588 48.975C517.588 46.375 518.288 44.125 519.688 42.225C521.088 40.275 523.088 38.775 525.688 37.725C528.288 36.625 531.363 36.075 534.913 36.075C537.813 36.075 540.563 36.4 543.163 37.05C545.813 37.7 548.113 38.725 550.063 40.125L546.613 48.6C545.063 47.55 543.238 46.7 541.138 46.05C539.088 45.35 537.163 45 535.363 45C533.213 45 531.688 45.325 530.788 45.975C529.888 46.575 529.438 47.325 529.438 48.225C529.438 48.925 529.688 49.525 530.188 50.025C530.688 50.475 531.488 50.8 532.588 51L540.688 52.425C543.988 52.975 546.513 54.125 548.263 55.875C550.063 57.575 550.963 59.9 550.963 62.85C550.963 65.6 550.213 67.95 548.713 69.9C547.263 71.8 545.238 73.275 542.638 74.325C540.038 75.325 537.013 75.825 533.563 75.825ZM556.878 75V36.9H570.228V75H556.878ZM556.578 31.5V19.5H570.603V31.5H556.578ZM600.914 75V22.125H622.214C628.464 22.125 633.739 23.2 638.039 25.35C642.339 27.45 645.589 30.475 647.789 34.425C650.039 38.325 651.164 43.025 651.164 48.525C651.164 53.975 650.039 58.675 647.789 62.625C645.589 66.575 642.339 69.625 638.039 71.775C633.739 73.925 628.464 75 622.214 75H600.914ZM614.789 63.75H621.314C626.764 63.75 630.789 62.5 633.389 60C636.039 57.5 637.364 53.675 637.364 48.525C637.364 43.325 636.039 39.5 633.389 37.05C630.789 34.55 626.764 33.3 621.314 33.3H614.789V63.75ZM673.758 75.825C670.458 75.825 667.558 75.05 665.058 73.5C662.558 71.9 660.583 69.6 659.133 66.6C657.733 63.6 657.033 60.05 657.033 55.95C657.033 51.8 657.733 48.25 659.133 45.3C660.583 42.3 662.558 40.025 665.058 38.475C667.558 36.875 670.458 36.075 673.758 36.075C676.708 36.075 679.358 36.775 681.708 38.175C684.108 39.575 685.683 41.4 686.433 43.65H685.683L686.508 36.9H699.333C699.183 38.6 699.033 40.325 698.883 42.075C698.783 43.825 698.733 45.55 698.733 47.25V75H685.533L685.383 68.55H686.283C685.533 70.75 683.958 72.525 681.558 73.875C679.208 75.175 676.608 75.825 673.758 75.825ZM678.033 65.925C680.283 65.925 682.108 65.15 683.508 63.6C684.908 62 685.608 59.45 685.608 55.95C685.608 52.45 684.908 49.925 683.508 48.375C682.108 46.775 680.283 45.975 678.033 45.975C675.783 45.975 673.958 46.775 672.558 48.375C671.158 49.925 670.458 52.45 670.458 55.95C670.458 59.45 671.133 62 672.483 63.6C673.883 65.15 675.733 65.925 678.033 65.925ZM726.524 75.825C721.124 75.825 717.049 74.55 714.299 72C711.599 69.4 710.249 65.475 710.249 60.225V46.725H703.124V36.9H710.249V27.9L723.599 24.75V36.9H732.899V46.725H723.599V59.7C723.599 61.9 724.099 63.375 725.099 64.125C726.099 64.825 727.299 65.175 728.699 65.175C729.549 65.175 730.274 65.125 730.874 65.025C731.524 64.875 732.199 64.675 732.899 64.425V74.7C731.799 75.15 730.699 75.45 729.599 75.6C728.549 75.75 727.524 75.825 726.524 75.825ZM753.079 75.825C749.779 75.825 746.879 75.05 744.379 73.5C741.879 71.9 739.904 69.6 738.454 66.6C737.054 63.6 736.354 60.05 736.354 55.95C736.354 51.8 737.054 48.25 738.454 45.3C739.904 42.3 741.879 40.025 744.379 38.475C746.879 36.875 749.779 36.075 753.079 36.075C756.029 36.075 758.679 36.775 761.029 38.175C763.429 39.575 765.004 41.4 765.754 43.65H765.004L765.829 36.9H778.654C778.504 38.6 778.354 40.325 778.204 42.075C778.104 43.825 778.054 45.55 778.054 47.25V75H764.854L764.704 68.55H765.604C764.854 70.75 763.279 72.525 760.879 73.875C758.529 75.175 755.929 75.825 753.079 75.825ZM757.354 65.925C759.604 65.925 761.429 65.15 762.829 63.6C764.229 62 764.929 59.45 764.929 55.95C764.929 52.45 764.229 49.925 762.829 48.375C761.429 46.775 759.604 45.975 757.354 45.975C755.104 45.975 753.279 46.775 751.879 48.375C750.479 49.925 749.779 52.45 749.779 55.95C749.779 59.45 750.454 62 751.804 63.6C753.204 65.15 755.054 65.925 757.354 65.925ZM171.9 133.45C169.067 133.45 166.533 133.083 164.3 132.35C162.067 131.617 160.117 130.567 158.45 129.2L159.95 125.9C161.117 126.767 162.283 127.5 163.45 128.1C164.65 128.667 165.933 129.1 167.3 129.4C168.667 129.667 170.2 129.8 171.9 129.8C174.867 129.8 177.067 129.25 178.5 128.15C179.933 127.05 180.65 125.583 180.65 123.75C180.65 122.183 180.15 120.983 179.15 120.15C178.15 119.317 176.4 118.65 173.9 118.15L168.65 117.1C165.417 116.433 163 115.35 161.4 113.85C159.833 112.35 159.05 110.317 159.05 107.75C159.05 105.65 159.583 103.817 160.65 102.25C161.75 100.683 163.283 99.4667 165.25 98.6C167.217 97.7333 169.5 97.3 172.1 97.3C174.6 97.3 176.883 97.6833 178.95 98.45C181.017 99.1833 182.783 100.267 184.25 101.7L182.8 104.9C181.233 103.5 179.583 102.5 177.85 101.9C176.15 101.267 174.217 100.95 172.05 100.95C169.317 100.95 167.15 101.55 165.55 102.75C163.983 103.917 163.2 105.517 163.2 107.55C163.2 109.183 163.7 110.467 164.7 111.4C165.7 112.3 167.35 112.983 169.65 113.45L174.95 114.5C178.35 115.2 180.85 116.25 182.45 117.65C184.05 119.05 184.85 121.017 184.85 123.55C184.85 125.483 184.317 127.2 183.25 128.7C182.217 130.2 180.733 131.367 178.8 132.2C176.867 133.033 174.567 133.45 171.9 133.45ZM199.952 133.45C196.986 133.45 194.736 132.633 193.202 131C191.702 129.367 190.952 126.867 190.952 123.5V107.9H195.002V123.4C195.002 125.7 195.469 127.4 196.402 128.5C197.336 129.567 198.786 130.1 200.752 130.1C202.952 130.1 204.719 129.383 206.052 127.95C207.386 126.517 208.052 124.6 208.052 122.2V107.9H212.102V133H208.152V127.35H208.802C208.102 129.283 206.969 130.783 205.402 131.85C203.869 132.917 202.052 133.45 199.952 133.45ZM219.96 133V113.7C219.96 112.767 219.91 111.817 219.81 110.85C219.743 109.85 219.66 108.867 219.56 107.9H223.46L223.96 113.4H223.36C224.026 111.5 225.076 110.033 226.51 109C227.976 107.967 229.743 107.45 231.81 107.45C233.91 107.45 235.61 107.95 236.91 108.95C238.243 109.95 239.143 111.5 239.61 113.6H238.86C239.493 111.7 240.61 110.2 242.21 109.1C243.81 108 245.676 107.45 247.81 107.45C250.576 107.45 252.66 108.25 254.06 109.85C255.46 111.417 256.16 113.9 256.16 117.3V133H252.11V117.55C252.11 115.183 251.693 113.467 250.86 112.4C250.026 111.3 248.693 110.75 246.86 110.75C244.76 110.75 243.093 111.483 241.86 112.95C240.66 114.383 240.06 116.317 240.06 118.75V133H236.01V117.55C236.01 115.183 235.593 113.467 234.76 112.4C233.926 111.3 232.593 110.75 230.76 110.75C228.66 110.75 227.01 111.483 225.81 112.95C224.61 114.383 224.01 116.317 224.01 118.75V133H219.96ZM276.456 133.45C274.19 133.45 272.24 132.883 270.606 131.75C268.973 130.583 267.873 129 267.306 127H267.856V133H263.856V96.2H267.906V113.75H267.306C267.873 111.817 268.973 110.283 270.606 109.15C272.24 108.017 274.19 107.45 276.456 107.45C278.723 107.45 280.673 107.983 282.306 109.05C283.973 110.083 285.256 111.567 286.156 113.5C287.09 115.433 287.556 117.75 287.556 120.45C287.556 123.15 287.09 125.467 286.156 127.4C285.223 129.333 283.923 130.833 282.256 131.9C280.623 132.933 278.69 133.45 276.456 133.45ZM275.606 130.15C277.973 130.15 279.873 129.333 281.306 127.7C282.74 126.067 283.456 123.65 283.456 120.45C283.456 117.25 282.74 114.833 281.306 113.2C279.873 111.533 277.973 110.7 275.606 110.7C273.24 110.7 271.34 111.533 269.906 113.2C268.506 114.833 267.806 117.25 267.806 120.45C267.806 123.617 268.506 126.033 269.906 127.7C271.34 129.333 273.24 130.15 275.606 130.15ZM304.987 133.45C301.053 133.45 297.953 132.317 295.687 130.05C293.42 127.75 292.287 124.567 292.287 120.5C292.287 117.867 292.787 115.583 293.787 113.65C294.787 111.683 296.187 110.167 297.987 109.1C299.787 108 301.853 107.45 304.187 107.45C306.487 107.45 308.42 107.933 309.987 108.9C311.553 109.867 312.753 111.25 313.587 113.05C314.42 114.817 314.837 116.917 314.837 119.35V120.85H295.387V118.3H312.187L311.337 118.95C311.337 116.283 310.737 114.2 309.537 112.7C308.337 111.2 306.553 110.45 304.187 110.45C301.687 110.45 299.737 111.333 298.337 113.1C296.937 114.833 296.237 117.183 296.237 120.15V120.6C296.237 123.733 297.003 126.117 298.537 127.75C300.103 129.35 302.287 130.15 305.087 130.15C306.587 130.15 307.987 129.933 309.287 129.5C310.62 129.033 311.887 128.283 313.087 127.25L314.487 130.1C313.387 131.167 311.987 132 310.287 132.6C308.62 133.167 306.853 133.45 304.987 133.45ZM320.934 133V113.95C320.934 112.95 320.901 111.933 320.834 110.9C320.801 109.867 320.734 108.867 320.634 107.9H324.534L325.034 114L324.334 114.05C324.667 112.55 325.251 111.317 326.084 110.35C326.917 109.383 327.901 108.667 329.034 108.2C330.167 107.7 331.351 107.45 332.584 107.45C333.084 107.45 333.517 107.467 333.884 107.5C334.284 107.533 334.651 107.617 334.984 107.75L334.934 111.35C334.434 111.183 333.967 111.083 333.534 111.05C333.134 110.983 332.667 110.95 332.134 110.95C330.667 110.95 329.384 111.3 328.284 112C327.217 112.7 326.401 113.6 325.834 114.7C325.301 115.8 325.034 116.967 325.034 118.2V133H320.934ZM352.685 133V97.75H364.385C368.285 97.75 371.585 98.4333 374.285 99.8C376.985 101.133 379.035 103.117 380.435 105.75C381.835 108.35 382.535 111.55 382.535 115.35C382.535 119.117 381.835 122.317 380.435 124.95C379.035 127.583 376.985 129.583 374.285 130.95C371.585 132.317 368.285 133 364.385 133H352.685ZM356.835 129.45H364.085C368.885 129.45 372.452 128.283 374.785 125.95C377.118 123.583 378.285 120.05 378.285 115.35C378.285 110.617 377.118 107.083 374.785 104.75C372.452 102.417 368.885 101.25 364.085 101.25H356.835V129.45ZM399.139 133.45C396.905 133.45 394.955 132.933 393.289 131.9C391.622 130.833 390.322 129.333 389.389 127.4C388.489 125.467 388.039 123.15 388.039 120.45C388.039 117.717 388.489 115.383 389.389 113.45C390.322 111.517 391.622 110.033 393.289 109C394.955 107.967 396.905 107.45 399.139 107.45C401.405 107.45 403.355 108.033 404.989 109.2C406.655 110.333 407.755 111.883 408.289 113.85H407.689L408.239 107.9H412.139C412.039 108.867 411.939 109.85 411.839 110.85C411.772 111.817 411.739 112.767 411.739 113.7V133H407.689V127.1H408.239C407.705 129.067 406.605 130.617 404.939 131.75C403.272 132.883 401.339 133.45 399.139 133.45ZM399.939 130.15C402.339 130.15 404.239 129.333 405.639 127.7C407.039 126.033 407.739 123.617 407.739 120.45C407.739 117.25 407.039 114.833 405.639 113.2C404.239 111.533 402.339 110.7 399.939 110.7C397.572 110.7 395.672 111.533 394.239 113.2C392.839 114.833 392.139 117.25 392.139 120.45C392.139 123.617 392.839 126.033 394.239 127.7C395.672 129.333 397.572 130.15 399.939 130.15ZM418.325 144.35L417.375 141C418.942 140.633 420.242 140.2 421.275 139.7C422.342 139.233 423.225 138.6 423.925 137.8C424.625 137 425.225 136 425.725 134.8L427.025 131.85L426.925 133.55L415.975 107.9H420.375L429.425 129.95H428.125L437.075 107.9H441.325L429.725 135.1C429.058 136.7 428.325 138.033 427.525 139.1C426.725 140.2 425.858 141.083 424.925 141.75C424.025 142.45 423.025 143 421.925 143.4C420.825 143.8 419.625 144.117 418.325 144.35ZM454.949 133.45C452.716 133.45 450.766 132.933 449.099 131.9C447.433 130.833 446.133 129.333 445.199 127.4C444.299 125.467 443.849 123.15 443.849 120.45C443.849 117.717 444.299 115.383 445.199 113.45C446.133 111.517 447.433 110.033 449.099 109C450.766 107.967 452.716 107.45 454.949 107.45C457.216 107.45 459.166 108.033 460.799 109.2C462.466 110.333 463.566 111.883 464.099 113.85H463.499L464.049 107.9H467.949C467.849 108.867 467.749 109.85 467.649 110.85C467.583 111.817 467.549 112.767 467.549 113.7V133H463.499V127.1H464.049C463.516 129.067 462.416 130.617 460.749 131.75C459.083 132.883 457.149 133.45 454.949 133.45ZM455.749 130.15C458.149 130.15 460.049 129.333 461.449 127.7C462.849 126.033 463.549 123.617 463.549 120.45C463.549 117.25 462.849 114.833 461.449 113.2C460.049 111.533 458.149 110.7 455.749 110.7C453.383 110.7 451.483 111.533 450.049 113.2C448.649 114.833 447.949 117.25 447.949 120.45C447.949 123.617 448.649 126.033 450.049 127.7C451.483 129.333 453.383 130.15 455.749 130.15ZM485.367 133L500.917 97.75H504.517L520.317 133H516.017L511.617 122.95L513.467 124H491.917L493.917 122.95L489.617 133H485.367ZM502.667 102.5L494.567 121.5L493.367 120.6H511.967L511.067 121.5L502.767 102.5H502.667ZM525.184 133V96.2H529.234V133H525.184ZM546.648 133.45C544.415 133.45 542.465 132.933 540.798 131.9C539.132 130.833 537.832 129.333 536.898 127.4C535.998 125.467 535.548 123.15 535.548 120.45C535.548 117.717 535.998 115.383 536.898 113.45C537.832 111.517 539.132 110.033 540.798 109C542.465 107.967 544.415 107.45 546.648 107.45C548.915 107.45 550.865 108.033 552.498 109.2C554.165 110.333 555.265 111.883 555.798 113.85H555.198L555.748 107.9H559.648C559.548 108.867 559.448 109.85 559.348 110.85C559.282 111.817 559.248 112.767 559.248 113.7V133H555.198V127.1H555.748C555.215 129.067 554.115 130.617 552.448 131.75C550.782 132.883 548.848 133.45 546.648 133.45ZM547.448 130.15C549.848 130.15 551.748 129.333 553.148 127.7C554.548 126.033 555.248 123.617 555.248 120.45C555.248 117.25 554.548 114.833 553.148 113.2C551.748 111.533 549.848 110.7 547.448 110.7C545.082 110.7 543.182 111.533 541.748 113.2C540.348 114.833 539.648 117.25 539.648 120.45C539.648 123.617 540.348 126.033 541.748 127.7C543.182 129.333 545.082 130.15 547.448 130.15ZM567.079 133V113.7C567.079 112.767 567.029 111.817 566.929 110.85C566.862 109.85 566.779 108.867 566.679 107.9H570.579L571.079 113.4H570.479C571.146 111.5 572.196 110.033 573.629 109C575.096 107.967 576.862 107.45 578.929 107.45C581.029 107.45 582.729 107.95 584.029 108.95C585.362 109.95 586.262 111.5 586.729 113.6H585.979C586.612 111.7 587.729 110.2 589.329 109.1C590.929 108 592.796 107.45 594.929 107.45C597.696 107.45 599.779 108.25 601.179 109.85C602.579 111.417 603.279 113.9 603.279 117.3V133H599.229V117.55C599.229 115.183 598.812 113.467 597.979 112.4C597.146 111.3 595.812 110.75 593.979 110.75C591.879 110.75 590.212 111.483 588.979 112.95C587.779 114.383 587.179 116.317 587.179 118.75V133H583.129V117.55C583.129 115.183 582.712 113.467 581.879 112.4C581.046 111.3 579.712 110.75 577.879 110.75C575.779 110.75 574.129 111.483 572.929 112.95C571.729 114.383 571.129 116.317 571.129 118.75V133H567.079Z" fill="#242424"/>
<path d="M29.8494 60.3147C43.1399 55.9963 57.4148 63.2697 61.7332 76.5603C62.6487 79.3779 61.1067 82.4042 58.2891 83.3197L9.477 99.1797L4.56107 84.05C2.04221 76.2977 6.28472 67.9713 14.037 65.4525L29.8494 60.3147Z" fill="#23EEFB"/>
<path d="M46 106.073C46 91.9471 57.4515 80.4956 71.5776 80.4956C74.5723 80.4956 77 82.9233 77 85.918V136.496H60.5799C52.5276 136.496 46 129.968 46 121.916V106.073Z" fill="#03CCF7"/>
<path d="M92.2308 101.656C79.9531 96.9466 73.8177 83.1758 78.527 70.8981C79.8833 67.3621 83.8493 65.5951 87.3853 66.9514L133.911 84.7972L128.214 99.6503C125.295 107.261 116.759 111.064 109.148 108.145L92.2308 101.656Z" fill="#1B74F1"/>
<path d="M106.755 56.1819C97.9716 67.0514 82.0401 68.7427 71.1707 59.9596C68.8663 58.0976 68.5078 54.7202 70.3698 52.4158L102.627 12.4957L115.001 22.4941C121.341 27.6172 122.327 36.91 117.204 43.25L106.755 56.1819Z" fill="#2327EF"/>
<path d="M63.6176 28.6521C72.8034 39.1834 71.7127 55.1673 61.1814 64.3531C58.9488 66.3005 55.5602 66.0693 53.6128 63.8366L19.8761 25.1585L31.8647 14.7016C38.0075 9.34358 47.3308 9.97978 52.6888 16.1226L63.6176 28.6521Z" fill="#1B74F1"/>
</svg>
