<svg width="25" height="25" viewBox="0 0 25 25" fill="none" xmlns="http://www.w3.org/2000/svg">
<path d="M17.777 14.7015C18.0222 14.7443 18.2752 14.7637 18.5243 14.7637C21.3034 14.7637 23.8411 12.1832 24.4327 8.76186C24.748 6.94806 24.4833 5.14205 23.6932 3.68245C22.8875 2.18782 21.6264 1.23033 20.1474 0.981222C19.9021 0.938407 19.6491 0.918945 19.4 0.918945C16.621 0.918945 14.0832 3.49952 13.4916 6.92082C12.8377 10.7041 14.7605 14.1916 17.777 14.7015ZM20.0189 1.73632C21.2566 1.9465 22.3192 2.76388 23.0121 4.04443C23.7205 5.35613 23.954 6.98698 23.6699 8.63341C23.1405 11.6927 20.9297 13.997 18.5282 13.997C18.3919 13.997 18.2596 13.9853 18.1234 13.9736C17.8159 13.1523 16.8662 10.0658 19.2482 8.54778C21.9339 6.83908 20.4159 3.13364 19.6881 1.6974C19.7971 1.70518 19.9099 1.71686 20.0189 1.73632ZM14.2584 7.04926C14.7449 4.23905 16.6521 2.06716 18.824 1.73632C19.3378 2.68214 21.1593 6.41482 18.824 7.90167C16.3563 9.47025 16.8467 12.405 17.2398 13.7595C15.0407 12.946 13.729 10.1125 14.2584 7.04926Z" fill="#F39EEB"/>
<path d="M20.6067 14.6388C19.2093 14.6388 17.6446 15.0942 16.2006 15.9155C15.0602 16.5655 14.1066 17.3906 13.3865 18.2742C13.8964 17.5346 14.1416 16.7212 14.0988 15.8843C13.9781 13.6268 11.67 11.8091 8.63017 11.3965C10.191 11.3576 11.4637 10.7699 12.2149 9.71898C13.0051 8.61747 13.1257 7.16176 12.5575 5.62043C12.0048 4.1258 10.8682 2.72069 9.35023 1.662C7.8089 0.591624 6.06517 0 4.43431 0C2.79956 0 1.4684 0.599408 0.689951 1.68535C-0.905876 3.91172 0.382462 7.52374 3.55855 9.73844C4.7418 10.5636 6.0457 11.1007 7.32626 11.307C7.14721 11.307 6.96817 11.307 6.78523 11.3148C2.90076 11.5172 -0.139101 13.8993 0.00491295 16.62C0.145034 19.2317 3.05645 21.205 6.78134 21.205C6.95649 21.205 7.13554 21.2012 7.31458 21.1895C9.17119 21.0922 10.8955 20.5044 12.1682 19.5314C12.538 19.2511 12.8494 18.9436 13.1179 18.6206C11.9775 20.1814 11.5766 21.894 12.2383 23.194C12.8182 24.3422 14.1183 25 15.7997 25C17.197 25 18.7617 24.5446 20.2058 23.7233C23.4791 21.8589 25.254 18.5933 24.1681 16.4448C23.5881 15.2966 22.2881 14.6388 20.6067 14.6388ZM4.43431 0.770668C5.90169 0.770668 7.48584 1.31169 8.89484 2.29254C10.2844 3.26172 11.3236 4.53838 11.8218 5.8851C12.3006 7.18512 12.2149 8.38783 11.5766 9.27526C11.5027 9.38035 11.4209 9.47766 11.3314 9.57107C10.4284 7.23182 8.42388 5.72163 5.65648 5.32072C3.49627 5.00934 2.34416 2.27697 2.03667 1.44014C2.66333 1.0081 3.4807 0.770668 4.43431 0.770668ZM4.01005 9.11179C1.18427 7.1423 -0.0184406 4.00903 1.32828 2.12907C1.35553 2.09014 1.39056 2.05511 1.4217 2.01619C1.90044 3.20333 3.181 5.74109 5.5436 6.08361C8.09693 6.45337 9.9224 7.85848 10.6814 10.0459L10.8215 9.99922C10.2026 10.4118 9.40083 10.6376 8.47058 10.6376C7.0032 10.6376 5.41905 10.0965 4.01005 9.11179ZM6.82805 12.0816C6.99542 12.0738 7.15889 12.0699 7.32237 12.0699C9.81341 12.0699 11.9425 13.0702 12.8494 14.5104C12.6548 15.102 11.8763 17.2038 10.4401 17.6631C9.71222 17.8966 8.88706 17.6553 7.98794 16.943C4.92862 14.5298 2.08338 15.3511 0.833965 15.9232C1.19595 13.9109 3.70256 12.2451 6.82805 12.0816ZM11.6934 18.9242C10.5452 19.8038 8.97658 20.3332 7.27566 20.4227C3.91664 20.5979 1.10253 18.9592 0.814504 16.7951C1.55793 16.3747 4.38371 15.0825 7.50141 17.5463C8.32268 18.1963 9.12059 18.5233 9.87958 18.5233C10.152 18.5233 10.4167 18.4805 10.6814 18.3987C12.0086 17.9745 12.8416 16.5616 13.2775 15.5729C13.3009 15.6897 13.3165 15.8065 13.3242 15.9271C13.3787 17.0131 12.7988 18.0796 11.6934 18.9242ZM12.935 22.8515C12.0281 21.061 13.6668 18.2508 16.5898 16.5849C17.9171 15.8259 19.3456 15.4095 20.6067 15.4095C21.0543 15.4095 21.463 15.4678 21.8327 15.569C21.3462 16.5071 19.8593 18.9242 17.2165 19.4418C14.5075 19.9751 13.4605 21.9952 13.0829 23.0889C13.0284 23.0149 12.9778 22.9371 12.935 22.8515ZM19.8165 23.0578C18.4893 23.8168 17.0608 24.2332 15.7997 24.2332C14.9551 24.2332 14.2389 24.0425 13.7057 23.6922C13.8808 22.9721 14.6359 20.7341 17.3683 20.1969C20.4159 19.5975 22.0468 16.8768 22.5528 15.8649C22.9576 16.0945 23.2729 16.402 23.4675 16.7873C24.3783 18.5778 22.7396 21.3919 19.8165 23.0578Z" fill="#F39EEB"/>
</svg>
