<svg width="25" height="25" viewBox="0 0 25 25" fill="none" xmlns="http://www.w3.org/2000/svg">
<g clip-path="url(#clip0_49_79)">
<path d="M16.1013 5.82734C15.6212 5.61445 14.6982 5.19258 14.0817 5.19258C13.54 5.19258 12.5103 5.59687 12.0294 5.81953C11.6028 6.01641 11.5396 6.18789 11.6228 6.45586C11.7083 6.73125 12.0317 6.88633 12.3392 6.8168C12.3392 6.8168 13.5888 6.22617 14.0474 6.22617C14.5142 6.22461 15.7907 6.82422 15.7907 6.82422C16.0982 6.89531 16.4224 6.73711 16.5087 6.46328C16.5911 6.19492 16.5278 6.01719 16.1013 5.82734ZM18.4001 6.8168C18.4001 6.8168 19.6497 6.22695 20.1083 6.22617C20.5759 6.22617 21.8525 6.82422 21.8525 6.82422C22.1599 6.89531 22.4841 6.73711 22.5689 6.46328C22.6528 6.19453 22.5888 6.0168 22.1622 5.82695C21.6837 5.61406 20.7591 5.19219 20.1442 5.19141C19.6001 5.19219 18.5728 5.59648 18.0911 5.81914C17.6638 6.0168 17.6005 6.1875 17.6837 6.45469C17.7696 6.73047 18.0923 6.88711 18.4001 6.8168ZM10.3013 18.0586C8.69229 18.6437 7.06026 18.2141 7.28604 18.8367C7.51261 19.4594 9.51378 20.8996 11.122 20.3145C12.7302 19.7285 13.3376 17.3391 13.111 16.7164C12.8837 16.0941 11.9095 17.4734 10.3013 18.0586ZM8.1255 14.1C8.11183 13.8285 7.99581 13.6871 7.54503 13.6566C7.03995 13.6207 6.06104 13.543 5.50206 13.7465C5.00909 13.9258 4.20792 14.6336 3.84425 14.9953C3.52315 15.3156 3.52081 15.4918 3.68565 15.7078C3.85362 15.9297 4.19972 15.9633 4.45557 15.7984C4.45557 15.7984 5.3962 14.8492 5.81222 14.6969C6.23643 14.5422 7.59386 14.6648 7.59386 14.6648C7.89659 14.6277 8.13995 14.3777 8.1255 14.1ZM13.0525 11.6523C12.5466 11.6164 11.5669 11.5387 11.0087 11.7422C10.515 11.9215 9.71417 12.6293 9.35089 12.9902C9.02901 13.3113 9.02823 13.4875 9.19151 13.7043C9.36026 13.9254 9.70558 13.9598 9.963 13.7941C9.963 13.7941 10.9013 12.8449 11.3189 12.6934C11.7431 12.5379 13.1013 12.6605 13.1013 12.6605C13.404 12.623 13.6462 12.373 13.6321 12.0953C13.6185 11.8234 13.5025 11.6828 13.0525 11.6523Z" fill="#FCE364"/>
<path d="M22.4144 19.1664C21.8948 19.277 21.5276 19.6281 21.2167 19.9547C20.5964 20.6285 20.1355 21.3676 19.555 21.943C18.994 22.5297 18.3405 22.9652 17.537 23.0555C16.7702 23.1629 15.9507 22.8707 15.4894 22.1207C15.2718 21.7551 15.1378 21.3137 15.1597 20.8816C15.1737 20.4556 15.3263 20.0458 15.5944 19.7145C15.6015 19.7063 15.6101 19.7 15.6171 19.6914C15.8309 19.9504 16.1081 20.1496 16.4218 20.2695C16.8155 20.4289 17.2022 20.4824 17.5815 20.541C18.3292 20.6348 19.105 20.7051 19.8741 20.5594C20.2622 20.4874 20.6322 20.3394 20.9628 20.1238C21.2906 19.8981 21.5694 19.6085 21.7823 19.2723C22.2155 18.6039 22.3913 17.7914 22.3601 16.9949C22.3223 16.1852 22.1063 15.3937 21.7276 14.677C21.537 14.3176 21.296 13.9645 21.0065 13.6629C22.6909 11.4547 24.2198 8.59375 24.2194 5.38438C24.2194 3.79219 24.0464 2.26992 23.7296 0.869922C22.0077 2.00586 19.6495 2.70625 17.0464 2.70625C14.3761 2.70625 11.9636 1.96836 10.2327 0.78125C9.96787 1.92344 9.80381 3.15039 9.74717 4.4293C9.73818 4.4293 9.7292 4.42656 9.72022 4.42656C9.45615 4.42656 9.21748 4.5332 9.04404 4.70664C8.55146 4.39266 7.97599 4.23372 7.39209 4.25039C6.92764 4.26875 6.38584 4.43789 6.04873 4.90195C5.87998 5.12461 5.79678 5.40234 5.78076 5.66016C5.7585 5.92109 5.80967 6.1668 5.87607 6.39258C5.94795 6.61758 6.04639 6.82578 6.1585 7.01914C6.27373 7.20898 6.36592 7.3625 6.4417 7.54648C6.58857 7.89336 6.65772 8.28125 6.59912 8.6625C6.34333 8.58831 6.10274 8.46927 5.88857 8.31094C5.34443 7.92266 4.90303 7.39531 4.67022 6.79883C4.43897 6.20508 4.38936 5.59102 4.53272 5.01055C4.68076 4.43086 5.00732 3.89961 5.40537 3.42578C5.81328 2.94336 6.29789 2.53146 6.83975 2.20664C7.3874 1.88789 7.99639 1.62969 8.67373 1.64492L8.69131 1.56875C8.02686 1.29648 7.24561 1.40312 6.57881 1.65859C5.8999 1.91562 5.28779 2.34063 4.78584 2.87852C4.28936 3.41953 3.9167 4.10703 3.79639 4.86289C3.73292 5.23947 3.73914 5.6245 3.81475 5.99883C3.89738 6.36305 4.0472 6.70867 4.25654 7.01797C4.66397 7.62383 5.20654 8.08242 5.74443 8.50508C5.98506 8.6832 6.22959 8.86484 6.51514 9.00586C6.41877 9.28275 6.25999 9.53376 6.05107 9.73945C5.771 10.0219 5.39717 10.1941 5.02881 10.2574C4.26201 10.3766 3.60498 9.94922 3.24717 9.31602C2.85732 8.66602 2.78467 7.91445 2.86631 7.13867C2.92881 6.35586 3.16982 5.56016 3.27764 4.6875C3.32334 4.25625 3.35459 3.76875 3.13818 3.31641C3.03323 3.09793 2.86626 2.9152 2.65811 2.79102C2.46279 2.66836 2.24912 2.60117 2.03779 2.56211L2.0124 2.63594C2.38311 2.83047 2.69209 3.11133 2.76553 3.45977C2.84873 3.80391 2.77178 4.18906 2.67256 4.575C2.46045 5.34844 2.15459 6.15586 2.03701 7.04688C1.9874 7.49102 1.9792 7.95937 2.07803 8.42031C2.17429 8.88113 2.35981 9.31865 2.62412 9.7082C2.8835 10.1012 3.25576 10.4535 3.7167 10.6375C4.17451 10.8281 4.69092 10.8176 5.12959 10.6727C5.89561 10.4164 6.46084 9.81094 6.73272 9.10078C7.06162 9.22695 7.47451 9.25781 7.83545 9.10352C8.22607 8.94492 8.51123 8.65586 8.72803 8.3582C8.9417 8.05469 9.11084 7.73867 9.24522 7.41289C9.39053 7.0582 9.50615 6.69688 9.59482 6.33008C9.63584 6.33555 9.67647 6.34258 9.71904 6.34258C9.73467 6.34258 9.74951 6.33867 9.76514 6.33789C9.8542 7.26953 10.069 8.17227 10.3706 9.03516C9.51139 9.59837 8.5899 10.0603 7.62451 10.4117C6.12764 10.9563 4.62803 11.2145 3.23662 11.2145C2.36631 11.2145 1.53896 11.1137 0.780762 10.918C0.951855 12.3238 1.30225 13.7988 1.84092 15.2789C4.121 21.5426 12.5714 24.2188 12.5714 24.2188C12.5714 24.2188 14.2507 21.5723 15.1339 18.1102C15.1339 18.1141 15.1327 18.1172 15.1323 18.1203C15.1026 18.5148 15.1995 18.9527 15.4124 19.3762C15.423 19.398 15.4394 19.416 15.4511 19.4367C15.4265 19.4688 15.398 19.498 15.3745 19.5309C14.8358 20.2777 14.6749 21.3297 15.0831 22.3059C15.2862 22.7863 15.653 23.2457 16.1382 23.5203C16.6194 23.8012 17.1726 23.8934 17.6749 23.8598C18.1719 23.8345 18.6583 23.7061 19.103 23.4828C19.5425 23.2637 19.9116 22.9457 20.2308 22.607C20.8585 21.9129 21.2819 21.1094 21.746 20.409C21.9831 20.0664 22.2351 19.743 22.5706 19.5871C22.9034 19.4199 23.3519 19.5039 23.7776 19.7L23.8183 19.6281C23.6335 19.4688 23.4253 19.327 23.1843 19.2367C22.946 19.1437 22.669 19.1094 22.4144 19.1664ZM8.69522 7.13945C8.36709 7.70117 7.99873 8.24492 7.56006 8.5418C7.36318 8.67266 7.121 8.73594 6.85068 8.70977C6.94476 8.28479 6.94689 7.84462 6.85693 7.41875C6.81123 7.20039 6.72803 6.97109 6.6585 6.78398C6.59241 6.60408 6.54107 6.41909 6.50498 6.23086C6.43467 5.86758 6.45693 5.53359 6.61318 5.3C6.7667 5.06211 7.08857 4.90859 7.44795 4.85273C7.89795 4.78867 8.3792 4.84258 8.84443 4.99883C8.79248 5.11719 8.7624 5.24688 8.7624 5.38438C8.7624 5.72813 8.94522 6.02695 9.2167 6.1957C9.04287 6.5168 8.87412 6.83359 8.69522 7.13945ZM16.0843 17.2156C16.0909 17.1789 16.0995 17.1422 16.1065 17.1055C16.6319 17.5777 16.9694 17.8391 16.9694 17.8391C16.9694 17.8391 17.4765 17.448 18.219 16.7504C18.3163 16.9969 18.3562 17.2406 18.3022 17.441C18.2288 17.7324 17.978 17.9742 17.6362 18.1535C17.4667 18.2434 17.2808 18.323 17.0823 18.3863C16.8815 18.4496 16.6382 18.5297 16.4308 18.6352C16.2784 18.7132 16.1332 18.8045 15.9968 18.9078C15.9163 18.393 15.978 17.7996 16.0843 17.2156ZM16.2901 16.2113C16.3214 16.0652 16.3534 15.9199 16.3839 15.7719C16.4862 15.7363 16.5851 15.6875 16.6722 15.6152C16.7819 15.5242 16.8644 15.4113 16.921 15.2867C17.2508 15.5017 17.5468 15.7646 17.7991 16.0668C17.5285 16.3258 17.2516 16.5783 16.9687 16.8238C16.7385 16.6241 16.5123 16.4199 16.2901 16.2113ZM21.121 14.8926C21.3437 15.5656 21.4589 16.2605 21.455 16.932C21.4526 17.602 21.3491 18.2594 21.0628 18.8148C20.7714 19.3687 20.296 19.7992 19.6835 20.0723C19.0671 20.3461 18.3261 20.4062 17.5983 20.2805C17.2382 20.2234 16.8796 20.0973 16.5905 19.902C16.3686 19.7561 16.1954 19.5471 16.0933 19.302C16.2622 19.2063 16.4427 19.1328 16.6304 19.0832C16.8327 19.0266 17.0226 19.0055 17.2573 18.9809C17.4989 18.9517 17.7362 18.8948 17.9647 18.8113C18.1937 18.7199 18.4265 18.6016 18.6194 18.4094C18.814 18.223 18.9757 17.9668 19.0323 17.6707C19.1382 17.1598 18.9683 16.6625 18.7183 16.2676C19.3741 15.6172 19.9882 14.9848 20.7397 14.0086C20.8952 14.2945 21.0175 14.5934 21.121 14.8926ZM12.2226 23.2621C10.3245 22.5383 4.36279 19.918 2.57725 15.0113C2.20712 13.9991 1.92151 12.9579 1.72334 11.8984C2.21279 11.9645 2.71865 11.9977 3.23701 11.9977C4.7542 11.9977 6.36397 11.7039 7.89287 11.1477C9.91631 10.4105 11.6909 9.26602 12.996 7.86992C13.5106 8.79007 13.9495 9.75053 14.3085 10.7418C16.0913 15.6387 13.2093 21.4863 12.2226 23.2621ZM15.1163 10.6934C15.0917 10.6199 15.071 10.5465 15.0444 10.4738C14.5163 9.02383 13.8534 7.69531 13.1011 6.52539C12.5581 7.25664 11.8577 7.94609 11.0394 8.56562C10.7522 7.704 10.5792 6.80851 10.5245 5.90195C10.6267 5.74438 10.68 5.56012 10.6778 5.37233C10.6756 5.18454 10.6179 5.0016 10.512 4.84648C10.537 3.8832 10.6241 2.93828 10.78 2.02344C12.5675 2.97305 14.7495 3.4875 17.0464 3.4875C19.2776 3.4875 21.4105 2.99883 23.173 2.09648C23.3483 3.15898 23.4374 4.26094 23.4374 5.38477C23.4382 9.73477 20.2667 13.6098 18.2101 15.6652C17.8648 15.3378 17.4567 15.0837 17.0105 14.9184C17.0213 14.6346 16.9257 14.3571 16.7425 14.1402C16.4589 13.7988 16.0292 13.6613 15.6526 13.7527C15.6399 13.3678 15.6081 12.9837 15.5573 12.602C15.9839 12.5012 16.4612 12.4184 16.969 12.4184C18.7405 12.4184 20.1749 13.4148 20.1749 12.7281C20.1749 12.043 18.7397 9.93594 16.9698 9.93594C16.278 9.93594 15.6401 10.2605 15.1163 10.6934Z" fill="#FCE364"/>
</g>
<defs>
<clipPath id="clip0_49_79">
<rect width="25" height="25" fill="white"/>
</clipPath>
</defs>
</svg>
