<svg width="31" height="18" viewBox="0 0 31 18" fill="none" xmlns="http://www.w3.org/2000/svg">
<g clip-path="url(#clip0_49_84)">
<path d="M16.795 15.5254C16.7433 15.7287 16.6399 15.9828 16.4847 16.0845C16.3296 16.1861 16.0711 16.2878 15.8125 16.2878C15.8642 16.0336 15.9676 15.8303 16.1228 15.7287C16.3296 15.5254 16.5364 15.5254 16.795 15.5254Z" fill="white"/>
<path d="M25.5769 3.69459C26.5076 3.69459 27.1776 4.40613 27.1776 5.26793C27.1776 6.08111 26.4537 6.79044 25.5769 6.79044H25.5251C25.4217 6.58714 25.3183 6.38385 25.1632 6.23138C24.8529 5.82478 24.4909 5.51984 23.9761 5.31654C23.9761 5.26572 23.9761 5.26572 23.9761 5.26572C23.9761 4.40171 24.6461 3.69238 25.5769 3.69238V3.69459Z" fill="white"/>
<path d="M25.3721 9.99023C25.3721 10.2444 25.217 10.4477 25.0619 10.5493C24.9068 10.6509 24.6482 10.7526 24.3896 10.7526C24.4414 10.5493 24.5448 10.2952 24.6999 10.1935C24.855 10.0919 25.1136 9.99023 25.3721 9.99023Z" fill="white"/>
<path d="M16.588 6.3335C16.7948 6.3335 17.0016 6.53679 17.0016 6.79091C17.0016 6.99421 16.7948 7.1975 16.588 7.1975C16.3294 7.1975 16.1226 6.99421 16.1226 6.79091C16.1226 6.48597 16.3294 6.3335 16.588 6.3335Z" fill="white"/>
<path d="M21.7028 13.6959V14.1533C20.772 14.1533 19.8951 14.1533 18.9644 14.1533V13.1877C19.4815 13.086 19.8434 12.7811 20.0997 12.4253C20.1515 12.4761 20.1515 12.5269 20.1515 12.5778C20.4617 13.2893 20.9788 13.7445 21.6488 13.7445C21.6488 13.6937 21.6488 13.6937 21.7005 13.6937L21.7028 13.6959Z" fill="white"/>
<path d="M21.7033 13.6959H21.6516C20.9794 13.6959 20.4623 13.2384 20.1542 12.5269C20.1542 12.4761 20.1542 12.4253 20.1025 12.3744C20.4128 11.917 20.5162 11.3071 20.5679 10.5978C20.5679 10.4962 20.5679 10.3437 20.5679 10.242C20.5679 9.98791 20.5679 9.68297 20.5162 9.37802C20.5162 8.56484 21.0333 7.80469 21.5999 7.80469C22.2204 7.80469 22.7375 8.4654 22.7375 9.27637C22.7375 9.47967 22.7375 9.68297 22.6858 9.83544C23.0995 10.242 23.3581 10.8011 23.3581 11.5104C23.3581 12.6263 22.6341 13.6428 21.7056 13.6936L21.7033 13.6959Z" fill="white"/>
<path d="M18.9127 13.19C15.864 12.2244 17.5187 6.53869 18.9127 4.6582C19.6883 5.77633 20.6686 8.51641 20.5651 10.598C20.5134 11.3095 20.3583 11.8686 20.0998 12.3238C20.0998 12.3238 20.0998 12.3238 20.0998 12.3746C19.8412 12.7812 19.4815 13.0353 18.9644 13.137C18.9644 13.137 18.9644 13.1878 18.9127 13.1878V13.19Z" fill="white"/>
<path d="M17.0017 6.73981C17.0017 6.48569 16.7949 6.28239 16.588 6.28239C16.3295 6.28239 16.1226 6.48569 16.1226 6.73981C16.1226 6.9431 16.3295 7.1464 16.588 7.1464C16.7949 7.1464 17.0017 6.9431 17.0017 6.73981ZM25.0618 10.5472C25.2687 10.3947 25.3721 10.2422 25.3721 9.98813C25.1135 9.98813 24.9067 10.039 24.6998 10.1914C24.493 10.3439 24.4413 10.598 24.3896 10.7505C24.6481 10.7505 24.855 10.6997 25.0618 10.5472ZM18.915 13.1878H18.9667V14.1535C16.7971 14.1535 14.6792 14.1535 12.5613 14.1535C12.4062 14.1535 12.3028 14.1535 12.1476 14.1535C13.0267 14.0518 13.7507 13.5436 13.8001 12.631V12.5802C13.8001 12.5802 13.8001 12.5293 13.8001 12.4785C13.8001 12.4277 13.8001 12.4277 13.8001 12.3769C13.8001 12.326 13.8001 12.2752 13.8001 12.2244C13.4899 10.6002 12.5096 9.93951 10.8549 10.2445C10.4412 9.28101 10.1826 8.92524 9.51265 8.6203C9.51265 8.6203 9.51265 8.6203 9.46094 8.6203C10.2883 7.70546 10.6997 7.85794 10.9066 7.60603C11.3203 7.30108 11.1134 6.53872 12.6108 5.6261C13.0245 5.4228 13.3347 5.21951 13.6967 5.11786C13.8518 2.68051 15.5043 0.85306 17.9325 0.598939C18.9127 0.446467 19.2747 1.31048 20.2572 1.61321C21.3431 1.91815 21.7546 1.86733 22.3234 3.03407C22.5819 3.69479 22.7888 4.25164 22.7888 4.96318C23.2025 5.06482 23.5644 5.16647 23.8725 5.31894C23.8725 5.31894 23.8725 5.31894 23.8725 5.36977C24.3379 5.57306 24.7515 5.87801 25.0618 6.2846C25.4238 6.74202 25.6823 7.35191 25.8375 8.11206C28.1622 7.80711 29.1964 9.38045 29.7113 11.4134C30.6421 14.865 26.1972 14.2065 24.0793 14.2065L23.5105 14.1557C22.89 14.1557 22.2717 14.1557 21.6512 14.1557V13.6983C22.5819 13.6475 23.3554 12.684 23.3554 11.4642C23.3554 10.7527 23.0968 10.1958 22.6831 9.78925C22.7348 9.58595 22.7348 9.38266 22.7348 9.23019C22.7348 8.417 22.2177 7.7585 21.5477 7.7585C20.9789 7.7585 20.4618 8.52086 20.4618 9.33183C20.5135 9.63678 20.5135 9.8909 20.5135 10.1958C20.5135 10.3483 20.5135 10.45 20.5135 10.5516C20.6169 8.47004 19.6344 5.72775 18.861 4.61183C17.5188 6.49011 15.8641 12.2288 18.9127 13.1923L18.915 13.1878Z" fill="#FEF3FD"/>
<path d="M13.8495 12.2751C13.8495 12.3259 13.8495 12.3768 13.8495 12.4276C13.8495 12.4784 13.8495 12.4784 13.8495 12.5292C13.8495 12.5801 13.8495 12.5801 13.8495 12.6309V12.6817C13.7461 13.696 12.8176 14.2042 11.6799 14.2042C8.7864 14.2042 5.99627 14.2042 3.10497 14.3567C1.86617 14.4075 0.469981 14.1534 0.211428 12.6309C0.159717 10.8542 0.935376 11.21 1.91788 9.88859C2.4867 9.12623 3.41524 8.67103 3.51866 8.36608C4.08748 7.29878 4.08748 6.33533 5.53313 5.77627C7.5993 4.96308 8.63351 6.84136 8.94153 8.51855C9.20008 8.6202 9.40693 8.72185 9.61377 8.77267C10.4389 9.33174 10.5446 9.53503 10.956 10.3968C12.5051 10.0411 13.5393 10.651 13.8495 12.2751Z" fill="#FEF3FD"/>
<path d="M13.8496 12.4785C13.7462 12.4785 13.6945 12.4277 13.6428 12.3261C13.4877 11.5637 13.2291 11.0577 12.7637 10.7527C12.2983 10.4478 11.6778 10.3461 10.9044 10.4986C10.801 10.4986 10.7492 10.4478 10.6975 10.397C10.3356 9.53296 10.2321 9.38049 9.45872 8.87446C9.3553 8.82364 9.3553 8.67116 9.40701 8.62034C9.45872 8.51869 9.61386 8.51869 9.66557 8.56952C10.4412 9.12858 10.6481 9.33188 11.0078 10.1429C11.8352 9.99038 12.5074 10.1429 12.9705 10.4478C13.4877 10.8036 13.8496 11.4135 14.0048 12.2753C14.0565 12.3261 14.0048 12.4277 13.8496 12.4785Z" fill="#F39EEB"/>
<path d="M13.9012 12.682C13.7978 12.682 13.6943 12.5804 13.6943 12.4787V12.4279C13.6943 12.3263 13.7978 12.2246 13.9012 12.2246C14.0046 12.2246 14.108 12.3263 14.108 12.4279C14.108 12.4787 14.108 12.4787 14.108 12.5296C14.0563 12.5804 14.0046 12.682 13.9012 12.682Z" fill="#F39EEB"/>
<path d="M26.2495 14.4075C25.8358 14.4075 25.4221 14.4075 25.0602 14.3567C24.7499 14.3567 24.4396 14.3567 24.1811 14.3567L23.6123 14.3059H12.2472C12.1437 14.3059 12.0403 14.2042 12.0403 14.1026C12.0403 14.0009 12.092 13.8993 12.1954 13.8993C13.0745 13.7976 13.6411 13.2894 13.6928 12.58C13.6928 12.58 13.6928 12.58 13.6928 12.5292C13.6928 12.4276 13.7962 12.3259 13.8996 12.3259C14.0031 12.3259 14.1065 12.4276 14.1065 12.5292V12.58C14.0548 13.1391 13.7962 13.5943 13.3308 13.8484H23.6123L24.1811 13.8993C24.4396 13.8993 24.7499 13.8993 25.0602 13.8993C26.5575 13.9501 28.6259 14.0009 29.3994 13.0861C29.7613 12.6795 29.8108 12.1204 29.6062 11.3094C28.9857 8.8721 27.8503 7.90644 25.9392 8.16277C25.8358 8.16277 25.7324 8.11195 25.7324 8.0103C25.5773 7.24794 25.3187 6.69109 25.0084 6.23367C24.7499 5.8779 24.3879 5.57296 23.9248 5.36966C23.6145 5.21719 23.2525 5.11554 22.8906 5.01389C22.7871 5.01389 22.7354 4.91225 22.7354 4.8106C22.7354 4.20071 22.5803 3.64165 22.3217 2.98314C21.8563 2.06831 21.5978 2.01749 20.8244 1.81419C20.6692 1.76337 20.5658 1.76337 20.4107 1.71254C19.997 1.56007 19.689 1.35677 19.3787 1.15348C18.965 0.848534 18.6548 0.645238 18.1399 0.696062C15.8152 0.950182 14.1605 2.67599 14.057 5.01168C14.057 5.11333 14.0053 5.16416 13.9019 5.16416C13.6433 5.2658 13.3848 5.36745 13.1262 5.51992C13.0228 5.57075 12.9194 5.62157 12.8677 5.6724C11.9369 6.23146 11.6783 6.7397 11.5255 7.09326C11.422 7.29656 11.3703 7.44903 11.2152 7.6015C11.1118 7.70315 11.0084 7.75397 10.8532 7.85562C10.6464 7.95727 10.3361 8.05892 9.87072 8.56716C9.87072 8.61798 9.87072 8.61798 9.81901 8.66881C9.76729 8.77045 9.61216 8.77045 9.56045 8.71963C9.50874 8.66881 9.45703 8.61798 9.45703 8.56716C9.45703 8.51633 9.45703 8.46551 9.50874 8.41469C10.0776 7.8048 10.4373 7.65232 10.6981 7.55068C10.8015 7.49985 10.9049 7.44903 10.9049 7.3982C10.9049 7.3982 10.9049 7.3982 10.9566 7.34738C11.0601 7.29656 11.1118 7.14408 11.1635 6.99161C11.3186 6.58502 11.5772 6.02596 12.6608 5.36745C12.7643 5.31663 12.8677 5.2658 12.9194 5.21498C13.1779 5.11333 13.3848 4.96086 13.6433 4.85921C13.8502 2.37104 15.6061 0.54359 18.086 0.28947C18.7582 0.187822 19.1719 0.492766 19.5833 0.79771C19.8419 1.00101 20.1521 1.2043 20.5141 1.30595C20.6692 1.35677 20.8244 1.4076 20.9278 1.4076C21.7035 1.61089 22.1666 1.71254 22.6837 2.77985C22.8906 3.33891 23.0974 3.89577 23.1491 4.6073C23.5111 4.70895 23.8731 4.8106 24.1316 4.91225C24.6487 5.16637 25.0624 5.47131 25.3727 5.8779C25.7346 6.33532 25.9415 6.89217 26.1461 7.60371C28.1088 7.40041 29.4016 8.51854 30.0716 11.0553C30.3301 11.9193 30.2267 12.6287 29.813 13.1369C28.9879 14.2528 27.5917 14.4075 26.2495 14.4075Z" fill="#F39EEB"/>
<path d="M0.366887 12.5292C0.522019 13.5457 1.34939 14.1025 2.74333 14.1025C2.84675 14.1025 2.95017 14.1025 3.05359 14.1025C5.94714 13.9501 8.73727 13.9501 11.6308 13.9501C12.7662 13.9501 13.5419 13.4418 13.6453 12.6308V12.58C13.6453 12.5292 13.6453 12.5292 13.6453 12.5292V12.4784C13.6453 12.4275 13.6453 12.3767 13.6453 12.3767C13.4384 11.1591 12.7145 10.4984 11.5274 10.4984C11.3205 10.4984 11.1137 10.4984 10.9069 10.5493C10.8034 10.5493 10.7517 10.4984 10.7 10.4476C10.338 9.53278 10.0795 9.23005 9.46122 8.9251C9.30608 8.82345 9.09924 8.77263 8.78898 8.67098C8.73727 8.67098 8.68555 8.56933 8.68555 8.51851C8.58213 7.8578 8.01332 5.7254 6.41254 5.7254C6.15398 5.7254 5.84372 5.77622 5.53345 5.92869C4.55095 6.33529 4.29465 6.89435 3.98438 7.6545C3.88096 7.90862 3.77754 8.16274 3.62241 8.46769C3.51899 8.67098 3.31215 8.82345 3.00188 9.07757C2.69162 9.33169 2.27793 9.63664 1.96992 10.0432C1.60794 10.5515 1.29768 10.8056 0.987415 11.0089C0.625441 11.263 0.366887 11.4663 0.366887 12.5314V12.5292ZM2.79504 14.4583C1.19201 14.4583 0.211755 13.7976 0.00491292 12.58C-0.0467977 11.3624 0.315177 11.0575 0.832283 10.6509C1.09084 10.4476 1.4011 10.1935 1.71136 9.73608C2.02163 9.27866 2.48702 8.97372 2.79729 8.72181C3.00413 8.56933 3.26268 8.36604 3.31439 8.26439C3.46953 8.01027 3.57295 7.75615 3.67637 7.50203C3.98663 6.73967 4.2969 6.03034 5.43228 5.57293C5.79426 5.42045 6.10452 5.36963 6.46649 5.36963C8.27412 5.36963 8.94636 7.50203 9.10149 8.36604C9.36004 8.46769 9.51517 8.51851 9.6703 8.62016C10.3425 8.97593 10.6528 9.33169 11.0125 10.1935C12.665 9.9902 13.7509 10.7526 14.0095 12.3259C14.0095 12.3767 14.0095 12.4275 14.0095 12.4784C14.0095 12.4784 14.0095 12.4784 14.0095 12.5292C14.0095 12.58 14.0095 12.58 14.0095 12.6308C14.0095 12.6308 14.0095 12.6817 14.0095 12.7325V12.7833C13.9061 13.7998 12.9753 14.4583 11.6331 14.4583C8.6878 14.4583 5.94939 14.4583 3.05584 14.5599C3.00413 14.4583 2.90071 14.4583 2.79729 14.4583H2.79504Z" fill="#F39EEB"/>
<path d="M24.1311 5.21723C24.5965 5.42053 24.9584 5.72547 25.2664 6.13206C25.3699 6.28454 25.525 6.43701 25.6284 6.64031C26.4041 6.58948 26.9729 6.03042 26.9729 5.32109C26.9729 4.55873 26.3524 3.90023 25.525 3.90023C24.8011 3.90023 24.1828 4.51012 24.1311 5.21944V5.21723ZM25.5767 6.99386H25.525C25.4733 6.99386 25.3699 6.94304 25.3699 6.89222C25.2664 6.68892 25.163 6.53645 25.0079 6.33315C24.6976 5.97738 24.3357 5.67244 23.9242 5.51997C23.8725 5.46914 23.8208 5.41832 23.8208 5.36749V5.31667C23.8208 4.3024 24.5965 3.54004 25.6284 3.54004C26.6626 3.54004 27.436 4.3024 27.436 5.31667C27.3843 6.2315 26.557 6.99165 25.5767 6.99165V6.99386Z" fill="#F39EEB"/>
<path d="M25.577 2.78045C25.4735 2.78045 25.3701 2.6788 25.3701 2.57716V1.6115C25.3701 1.50985 25.4735 1.4082 25.577 1.4082C25.6804 1.4082 25.7838 1.50985 25.7838 1.6115V2.57716C25.7838 2.6788 25.6804 2.78045 25.577 2.78045Z" fill="#F39EEB"/>
<path d="M27.4903 3.54284C27.4386 3.54284 27.3869 3.54284 27.3352 3.49201C27.2835 3.39037 27.2835 3.28872 27.3352 3.23789L28.0591 2.57718C28.1625 2.52636 28.266 2.52636 28.3177 2.57718C28.3694 2.67883 28.3694 2.78048 28.3177 2.8313L27.596 3.49201C27.596 3.49201 27.5443 3.54284 27.4925 3.54284H27.4903Z" fill="#F39EEB"/>
<path d="M29.2977 5.47153H28.3152C28.2118 5.47153 28.1084 5.36989 28.1084 5.26824C28.1084 5.16659 28.2118 5.06494 28.3152 5.06494H29.2977C29.4012 5.06494 29.5046 5.16659 29.5046 5.26824C29.5046 5.36989 29.4012 5.47153 29.2977 5.47153Z" fill="#F39EEB"/>
<path d="M28.212 8.01064C28.1603 8.01064 28.1086 8.01064 28.0569 7.95982L27.3329 7.29911C27.2295 7.24828 27.2295 7.09581 27.3329 7.04499C27.3846 6.94334 27.5398 6.94334 27.5915 7.04499L28.3132 7.7057C28.4166 7.75652 28.4166 7.90899 28.3132 7.95982C28.3132 8.01064 28.2615 8.01064 28.2098 8.01064H28.212Z" fill="#F39EEB"/>
<path d="M23.6139 3.54287C23.5622 3.54287 23.5105 3.54287 23.4588 3.49205L22.7866 2.83133C22.6831 2.78051 22.6831 2.62804 22.7866 2.57721C22.8383 2.47556 22.9934 2.47556 23.0451 2.57721L23.7668 3.23792C23.8702 3.28875 23.8702 3.44122 23.7668 3.49205C23.7151 3.49205 23.6634 3.54287 23.6117 3.54287H23.6139Z" fill="#F39EEB"/>
<path d="M9.87264 3.94917C9.82093 3.94917 9.82093 3.94917 9.76922 3.94917C9.66579 3.89835 9.61408 3.7967 9.66579 3.69505C9.76922 3.49175 9.92435 3.39011 10.0795 3.28846C10.6483 3.08516 11.37 3.49175 11.4734 3.54258C11.5768 3.5934 11.6285 3.69505 11.5768 3.7967C11.5251 3.89835 11.4217 3.94917 11.3183 3.89835C11.1114 3.7967 10.5943 3.5934 10.2324 3.69505C10.1289 3.74587 10.0772 3.7967 10.0255 3.89835C10.0255 3.94917 9.97381 3.94917 9.87039 3.94917H9.87264Z" fill="#F39EEB"/>
<path d="M9.87269 3.94896C9.82098 3.94896 9.71755 3.89813 9.71755 3.84731C9.66584 3.74566 9.61413 3.69484 9.51071 3.64401C9.14874 3.54236 8.57992 3.74566 8.37308 3.84731C8.26966 3.89813 8.16624 3.84731 8.11452 3.74566C8.06281 3.64401 8.11452 3.54236 8.21795 3.49154C8.32137 3.44072 9.09703 3.08495 9.6636 3.23742C9.87044 3.28824 10.0256 3.44072 10.0773 3.64401C10.129 3.74566 10.0773 3.84731 9.97386 3.89813C9.92215 3.94896 9.92215 3.94896 9.87044 3.94896H9.87269Z" fill="#F39EEB"/>
<path d="M12.4556 0.749463C12.4039 0.749463 12.4039 0.749463 12.3522 0.749463C12.2488 0.698639 12.1971 0.596991 12.2488 0.495343C12.3522 0.292046 12.5074 0.190398 12.6602 0.0887503C13.2291 -0.114546 14.0047 0.292046 14.1059 0.34287C14.2093 0.393694 14.261 0.495343 14.2093 0.596991C14.1576 0.698639 14.0542 0.749463 13.9508 0.698639C13.7439 0.596991 13.1234 0.342871 12.8154 0.495343C12.7119 0.546167 12.6602 0.596991 12.6085 0.698639C12.6085 0.698639 12.5568 0.749463 12.4534 0.749463H12.4556Z" fill="#F39EEB"/>
<path d="M12.4557 0.749248C12.404 0.749248 12.3006 0.698424 12.3006 0.6476C12.2489 0.545952 12.1972 0.495128 12.0938 0.444304C11.7835 0.342656 11.2147 0.545952 11.0078 0.6476C10.9044 0.698424 10.801 0.6476 10.7493 0.545952C10.6976 0.444304 10.7493 0.342656 10.8527 0.291832C10.9561 0.241008 11.6778 -0.11476 12.2489 0.037712C12.4557 0.088536 12.6109 0.241008 12.6603 0.444304C12.712 0.545952 12.6603 0.6476 12.5569 0.698424C12.5052 0.698424 12.5052 0.749248 12.4535 0.749248H12.4557Z" fill="#F39EEB"/>
<path d="M5.37806 1.61123C5.32635 1.61123 5.32635 1.61123 5.27464 1.56041C5.17122 1.50958 5.17122 1.40794 5.22293 1.30629C5.68833 0.543927 7.03056 1.15382 7.08227 1.15382C7.18569 1.20464 7.2374 1.30629 7.18569 1.40794C7.13398 1.50958 7.03056 1.56041 6.92713 1.50958C6.92713 1.50958 5.84346 1.00134 5.58491 1.50958C5.48148 1.56041 5.42977 1.61123 5.37806 1.61123Z" fill="#F39EEB"/>
<path d="M5.3783 1.61073C5.32659 1.61073 5.22317 1.55991 5.22317 1.50909C5.01632 1.15332 4.1912 1.40744 3.93265 1.50909C3.82923 1.55991 3.72581 1.50909 3.67409 1.40744C3.62238 1.30579 3.67409 1.20414 3.77752 1.15332C4.29462 0.899198 5.27488 0.695902 5.58514 1.30579C5.63685 1.40744 5.58514 1.50909 5.48172 1.55991C5.43001 1.61073 5.3783 1.61073 5.3783 1.61073Z" fill="#F39EEB"/>
<path d="M18.9128 5.01389C17.9326 6.48778 16.9501 9.58363 17.5706 11.5127C17.8292 12.2751 18.2429 12.7303 18.9128 12.9336C19.3265 12.8319 19.6885 12.5778 19.8953 12.2221C20.1539 11.8155 20.309 11.2564 20.309 10.5471C20.4642 8.61797 19.6368 6.1298 18.9128 5.01168V5.01389ZM18.9128 13.3424H18.8611C18.0338 13.0883 17.5189 12.5292 17.2086 11.6166C16.5364 9.48419 17.674 5.92872 18.76 4.50786C18.8117 4.45703 18.8634 4.45703 18.9151 4.45703C18.9668 4.45703 19.0185 4.50786 19.0702 4.55868C19.9493 5.72542 20.8261 8.51853 20.7744 10.6001C20.7227 11.3625 20.5676 11.9724 20.2573 12.4784C19.9471 12.9358 19.5334 13.2407 19.0185 13.3424C19.0185 13.3424 18.9668 13.3424 18.9151 13.3424H18.9128Z" fill="#F39EEB"/>
<path d="M18.9651 16.5399C18.8617 16.5399 18.7583 16.4382 18.7583 16.3366V13.1369C18.7583 13.0352 18.8617 12.9336 18.9651 12.9336C19.0686 12.9336 19.172 13.0352 19.172 13.1369V16.3366C19.172 16.4382 19.0686 16.5399 18.9651 16.5399Z" fill="#F39EEB"/>
<path d="M20.3609 12.4782C20.6712 13.1389 21.1366 13.4925 21.6515 13.4925H21.7032C22.5283 13.4417 23.2005 12.5268 23.2005 11.4617C23.2005 10.8518 22.9937 10.3458 22.6317 9.93921C22.58 9.88839 22.58 9.83756 22.58 9.73592C22.6317 9.58344 22.6317 9.38015 22.6317 9.22767C22.6317 8.51614 22.218 7.95928 21.6492 7.95928C21.1838 7.95928 20.7701 8.62 20.7184 9.32932C20.7701 9.63427 20.7701 9.93921 20.7701 10.1933C20.7701 10.3458 20.7701 10.4475 20.7701 10.5999C20.7184 11.3115 20.5633 11.8705 20.3047 12.3257C20.3047 12.3766 20.3565 12.4274 20.3565 12.4782H20.3609ZM21.6515 13.8482C20.9298 13.8482 20.3609 13.3908 19.999 12.5799C19.999 12.5799 19.999 12.529 19.999 12.4782V12.4274C19.9473 12.3766 19.9473 12.2749 19.9473 12.1733C20.2058 11.7667 20.361 11.2076 20.4127 10.5491C20.4127 10.4475 20.4127 10.295 20.4127 10.1933C20.4127 9.93921 20.4127 9.63427 20.3609 9.38015C20.3609 8.4167 20.9815 7.60352 21.6515 7.60352C22.4271 7.60352 22.9937 8.31505 22.9937 9.2785C22.9937 9.43097 22.9937 9.63427 22.942 9.78674C23.3557 10.2442 23.5625 10.801 23.5625 11.5125C23.5625 12.8318 22.7351 13.8482 21.7032 13.8991C21.7032 13.8482 21.6515 13.8482 21.6515 13.8482Z" fill="#F39EEB"/>
<path d="M21.6517 13.8491C21.5482 13.8491 21.4448 13.7475 21.4448 13.6458V9.38103C21.4448 9.27938 21.5482 9.17773 21.6517 9.17773C21.7551 9.17773 21.8585 9.27938 21.8585 9.38103V13.6458C21.8068 13.7983 21.7551 13.8491 21.6517 13.8491Z" fill="#F39EEB"/>
<path d="M21.6515 10.6509C21.5998 10.6509 21.548 10.6509 21.4963 10.6001L20.9275 9.88858C20.8758 9.78693 20.8758 9.68528 20.9792 9.63446C21.0827 9.58363 21.1861 9.58363 21.2378 9.68528L21.8066 10.3968C21.8583 10.4985 21.8583 10.6001 21.7549 10.6509C21.7032 10.6001 21.6515 10.6509 21.6515 10.6509Z" fill="#F39EEB"/>
<path d="M21.6515 12.6815C21.5998 12.6815 21.5481 12.6815 21.5481 12.6306C21.4447 12.5798 21.4447 12.4273 21.4964 12.3765L22.272 11.4109C22.3237 11.3092 22.4789 11.3092 22.5306 11.36C22.634 11.4109 22.634 11.5633 22.5823 11.6142L21.8066 12.5798C21.7549 12.6306 21.7032 12.6815 21.6515 12.6815Z" fill="#F39EEB"/>
<path d="M21.6513 12.1738C21.5996 12.1738 21.5478 12.1738 21.4961 12.123L20.7722 11.3098C20.7205 11.2082 20.7205 11.1065 20.7722 11.0557C20.8756 11.0049 20.979 11.0049 21.0307 11.0557L21.7547 11.8689C21.8064 11.9705 21.8064 12.0722 21.7547 12.123C21.703 12.123 21.6513 12.1738 21.6513 12.1738Z" fill="#F39EEB"/>
<path d="M21.7029 15.9809C21.5995 15.9809 21.4961 15.8793 21.4961 15.7776V13.5944C21.4961 13.4928 21.5995 13.3911 21.7029 13.3911C21.8064 13.3911 21.9098 13.4928 21.9098 13.5944V15.7776C21.9098 15.8793 21.8064 15.9809 21.7029 15.9809Z" fill="#F39EEB"/>
<path d="M16.2262 17.9122C16.1745 17.9122 16.1228 17.8613 16.0711 17.8105C16.0194 17.7089 16.0194 17.6072 16.1228 17.5564C16.8984 16.9973 17.8787 16.4891 18.9646 16.1841C19.8437 15.8792 20.7722 15.7267 21.703 15.6251C21.8065 15.6251 21.9099 15.6251 22.0133 15.5743C22.5821 15.5234 23.2026 15.5234 23.7692 15.5743C25.008 15.6759 26.2491 15.8792 27.335 16.2858C27.4384 16.3366 27.4901 16.4383 27.4384 16.5399C27.3867 16.6416 27.2833 16.6924 27.1799 16.6416C26.1457 16.2858 24.9586 16.0317 23.7692 15.93C23.2004 15.8792 22.6338 15.8792 22.065 15.93C21.9616 15.93 21.8582 15.93 21.7547 15.9808C20.8262 16.0825 19.9471 16.2858 19.068 16.5399C18.0338 16.8957 17.1053 17.3531 16.3296 17.8591C16.2779 17.9099 16.2262 17.9099 16.2262 17.9099V17.9122Z" fill="#F39EEB"/>
<path d="M18.9129 13.3404C18.8095 13.3404 18.7061 13.2387 18.7061 13.1371V7.65252C18.7061 7.55087 18.8095 7.44922 18.9129 7.44922C19.0163 7.44922 19.1197 7.55087 19.1197 7.65252V13.1879C19.1197 13.2896 19.0163 13.3404 18.9129 13.3404Z" fill="#F39EEB"/>
<path d="M18.9132 8.77057C18.8615 8.77057 18.8098 8.77057 18.7581 8.71974L18.1892 8.00821C18.1375 7.95738 18.1375 7.80491 18.2409 7.75409C18.3444 7.70326 18.4478 7.70326 18.4995 7.80491L19.0683 8.51645C19.12 8.6181 19.12 8.71974 19.0166 8.77057C19.0166 8.77057 18.9649 8.77057 18.9132 8.77057Z" fill="#F39EEB"/>
<path d="M18.9127 10.9053C18.861 10.9053 18.8093 10.9053 18.8093 10.8545C18.7059 10.8037 18.7059 10.6512 18.7576 10.6004L19.5333 9.63694C19.585 9.53529 19.7401 9.53529 19.7918 9.58612C19.8952 9.63694 19.8952 9.78941 19.8435 9.84024L19.0701 10.8059C19.0184 10.8567 18.9667 10.9075 18.915 10.9075L18.9127 10.9053Z" fill="#F39EEB"/>
<path d="M18.913 11.665C18.8613 11.665 18.8096 11.665 18.7578 11.6142L18.0339 10.801C17.9822 10.6994 17.9822 10.5977 18.0339 10.5469C18.1373 10.4961 18.2407 10.4961 18.2925 10.5469L19.0164 11.3601C19.0681 11.4617 19.0681 11.5634 19.0164 11.6142C19.0164 11.6142 18.9647 11.665 18.913 11.665Z" fill="#F39EEB"/>
<path d="M23.7693 15.981C23.6659 15.981 23.5625 15.8794 23.5625 15.7778C23.5625 15.7269 23.5625 15.6761 23.6142 15.6253C23.6142 15.6253 23.6142 15.6253 23.6659 15.6253C23.8211 15.5236 23.9245 15.4728 24.0796 15.422C24.183 15.3712 24.2347 15.3712 24.3382 15.3203C25.3207 14.9646 26.2492 14.8629 26.9732 15.0154C27.0766 15.0154 27.1283 15.117 27.1283 15.2187C27.1283 15.3203 27.0249 15.3712 26.9214 15.3712C26.2492 15.2695 25.4241 15.3712 24.4933 15.6761C24.3899 15.7269 24.3382 15.7778 24.2347 15.7778C24.0796 15.8286 23.9762 15.8794 23.8728 15.981C23.8211 15.9302 23.8211 15.981 23.7693 15.981Z" fill="#F39EEB"/>
<path d="M16.5883 6.48565C16.4331 6.48565 16.3297 6.5873 16.3297 6.73977C16.3297 6.84142 16.4331 6.94307 16.5883 6.94307C16.6917 6.94307 16.7951 6.84142 16.7951 6.73977C16.7951 6.5873 16.6917 6.48565 16.5883 6.48565ZM16.5883 7.34966C16.2263 7.34966 15.916 7.09554 15.916 6.7906C15.916 6.43483 16.1746 6.12988 16.5883 6.12988C16.8985 6.12988 17.1571 6.43483 17.1571 6.7906C17.1571 7.04472 16.8985 7.34966 16.5883 7.34966Z" fill="#F39EEB"/>
<path d="M25.1134 10.1937C25.01 10.1937 24.9066 10.2445 24.8031 10.3461C24.7514 10.397 24.6997 10.4478 24.648 10.5494C24.7514 10.4986 24.8031 10.4986 24.9066 10.4478C25.01 10.3461 25.1134 10.2953 25.1134 10.1937ZM24.3895 10.956C24.3378 10.956 24.286 10.9052 24.2343 10.8544C24.1826 10.8035 24.1826 10.7527 24.1826 10.7019V10.6511C24.2343 10.4478 24.3377 10.1937 24.5446 10.0412C24.8031 9.88871 25.01 9.83789 25.3203 9.83789C25.4237 9.83789 25.5271 9.93954 25.5271 10.0412C25.5271 10.3461 25.372 10.6003 25.1157 10.7527C24.9088 10.9052 24.702 10.956 24.3917 10.956H24.3895Z" fill="#F39EEB"/>
<path d="M16.485 15.7269C16.3816 15.7269 16.3299 15.7777 16.2782 15.8285C16.2782 15.8285 16.2782 15.8285 16.2265 15.8285C16.1748 15.8793 16.1231 15.9302 16.0714 16.0318C16.1748 16.0318 16.2265 15.981 16.3299 15.9302C16.4333 15.8793 16.485 15.8285 16.485 15.7269ZM15.8128 16.4892C15.7611 16.4892 15.7094 16.4384 15.6577 16.4384C15.606 16.3876 15.606 16.3368 15.606 16.2859C15.6577 16.0318 15.7611 15.7777 15.9679 15.6252C16.2265 15.3711 16.485 15.3711 16.7436 15.3711C16.7953 15.3711 16.847 15.4219 16.8987 15.4727C16.9504 15.5236 16.9504 15.5744 16.9504 15.6252V15.676C16.8987 15.8793 16.7953 16.1335 16.5885 16.2859C16.3299 16.3876 16.1231 16.4892 15.8128 16.4892Z" fill="#F39EEB"/>
</g>
<defs>
<clipPath id="clip0_49_84">
<rect width="30.2143" height="18" fill="white"/>
</clipPath>
</defs>
</svg>
