<svg width="27" height="23" viewBox="0 0 27 23" fill="none" xmlns="http://www.w3.org/2000/svg">
<path d="M13.4828 0C12.8605 0 12.6531 0.418182 12.2382 0.836364L0.207427 20.7C4.63636e-08 20.9091 0 21.3273 0 21.5364C0 22.5818 0.829708 23 1.45199 23H25.5135C26.3432 23 26.9655 22.5818 26.9655 21.5364C26.9655 21.1182 26.9655 21.1182 26.7581 20.7L14.9347 0.836364C14.5199 0.418182 14.105 0 13.4828 0ZM13.4828 3.13636L20.3279 14.6364H18.6684L15.557 11.5L13.4828 14.6364L11.4085 11.5L8.29708 14.6364H6.43024L13.4828 3.13636Z" fill="#76CDD6"/>
</svg>
