<svg width="20" height="20" viewBox="0 0 20 20" fill="none" xmlns="http://www.w3.org/2000/svg">
<path d="M3.35 10.9091C4.54 10.9091 4.77 12.7273 6.68 12.7273C8.63 12.7273 8.77 10.9091 10.01 10.9091C11.2 10.9091 11.43 12.7273 13.34 12.7273C15.29 12.7273 15.43 10.9091 16.67 10.9091C17.86 10.9091 18.07 12.6909 19.98 12.7273V9.09091C18.79 9.09091 18.56 7.27273 16.65 7.27273C14.7 7.27273 14.56 9.09091 13.32 9.09091C12.13 9.09091 11.9 7.27273 9.99 7.27273C8.04 7.27273 7.9 9.09091 6.66 9.09091C5.47 9.09091 5.24 7.27273 3.33 7.27273C1.38 7.27273 1.24 9.09091 0 9.09091V12.7273C1.9 12.7273 2.17 10.9091 3.35 10.9091ZM16.67 14.5455C14.72 14.5455 14.58 16.3636 13.34 16.3636C12.15 16.3636 11.92 14.5455 10.01 14.5455C8.06 14.5455 7.91 16.3636 6.67 16.3636C5.43 16.3636 5.29 14.5455 3.34 14.5455C1.39 14.5455 1.24 16.3636 0 16.3636V20C1.95 20 2.11 18.1818 3.34 18.1818C4.58 18.1818 4.72 20 6.67 20C8.62 20 8.77 18.1818 10.01 18.1818C11.2 18.1818 11.43 20 13.34 20C15.28 20 15.43 18.1818 16.67 18.1818C17.86 18.1818 18.09 20 20 20V16.3636C18.76 16.3636 18.62 14.5455 16.67 14.5455ZM3.35 3.63636C4.54 3.63636 4.77 5.45455 6.68 5.45455C8.63 5.45455 8.77 3.63636 10.01 3.63636C11.2 3.63636 11.43 5.45455 13.34 5.45455C15.29 5.45455 15.43 3.63636 16.67 3.63636C17.86 3.63636 18.07 5.41818 19.98 5.45455V1.81818C18.79 1.81818 18.56 0 16.65 0C14.7 0 14.56 1.81818 13.32 1.81818C12.13 1.81818 11.9 0 9.99 0C8.04 0 7.9 1.81818 6.66 1.81818C5.47 1.81818 5.24 0 3.33 0C1.38 0 1.24 1.81818 0 1.81818V5.45455C1.9 5.45455 2.17 3.63636 3.35 3.63636Z" fill="#4692FD"/>
</svg>
