<svg width="30" height="18" viewBox="0 0 30 18" fill="none" xmlns="http://www.w3.org/2000/svg">
<path d="M13.8366 9.71064C13.6493 9.71064 13.4619 9.71064 13.2746 9.71064C13.0873 9.71064 12.9 9.71064 12.7127 9.71064C12.6658 9.71064 12.619 9.75746 12.5722 9.80429C12.4317 10.2258 12.338 10.6941 12.2444 11.0687C12.9936 12.8482 12.8063 14.5341 12.0102 15.7985C11.7292 16.22 11.3078 16.6883 11.7761 16.8288C11.9634 16.8756 12.1507 16.9224 12.338 16.9224C12.4785 16.9224 12.5722 16.8756 12.6658 16.782C12.8531 16.501 12.9 16.4073 13.1341 16.1732C13.5556 15.7985 13.6961 15.3302 13.7897 14.8151C13.8366 14.6278 13.8366 14.4405 13.8366 14.3C13.7897 12.8482 13.7897 11.3029 13.8366 9.71064ZM25.544 9.71064C25.3099 9.336 25.0289 8.91453 24.7011 8.53989C24.6075 8.3994 24.4201 8.35257 24.2328 8.3994C23.9987 8.49306 23.7177 8.63355 23.3899 8.82087C23.9518 11.2092 23.905 12.8951 21.7508 15.9858C21.6572 16.0795 21.704 16.2668 21.8445 16.3137C22.0786 16.4541 22.4533 16.501 22.7811 16.501C22.9684 16.501 23.0621 16.3605 23.1089 16.22C23.1557 16.0795 23.2494 15.939 23.3899 15.7985C23.4367 15.7517 23.4835 15.658 23.5304 15.6112C23.8113 14.1126 24.467 12.8014 25.3567 11.5838C25.825 10.8346 25.6377 10.2258 25.544 9.71064Z" fill="#4692FD"/>
<path d="M29.3374 2.59322C29.0096 1.79711 28.4477 0.954169 27.7452 0.48587C26.9491 0.0175705 25.7315 -0.122919 23.952 0.11123C21.6105 0.39221 19.4095 0.34538 17.349 0.15806C15.5695 -0.0292593 13.7899 -0.0292591 12.0104 0.20489C9.38791 0.57953 7.28056 1.18832 5.68834 1.09466C5.54785 1.09466 5.40736 0.954168 5.40736 0.766849C5.36053 0.25172 4.84541 -0.122919 3.76832 0.72002C2.97221 0.111231 2.1761 1.04783 1.80146 1.42247C1.42682 1.79711 1.2395 2.21858 1.19267 2.73371C1.09901 3.99811 0.443394 4.46641 0.115585 4.98154C-0.071735 5.26252 -0.0249051 5.68399 0.209244 5.91814C0.443394 6.15229 0.677544 6.33961 0.958523 6.43327C1.00535 6.43327 1.09901 6.38644 1.14584 6.33961C1.66097 6.05863 1.75463 4.93471 2.45708 5.26252C2.50391 5.26252 2.50391 5.30935 2.50391 5.35618C2.50391 5.40301 2.45708 5.40301 2.41025 5.40301C1.80146 5.16886 1.80146 6.10546 1.28633 6.4801C1.56731 6.4801 1.84829 6.38644 2.22293 6.15229C3.25319 5.63716 4.0493 5.49667 4.56443 5.30935C4.79858 5.21569 5.12638 5.26252 5.3137 5.44984C5.68834 5.77765 6.10981 6.10546 6.62494 6.33961C6.81226 6.43327 6.99958 6.57376 7.14007 6.71425C7.6552 7.22938 8.40448 7.69768 9.24742 8.11914C10.0435 8.54061 10.5587 9.33672 10.5587 10.2265C10.5587 10.7416 10.5118 11.3504 10.4182 12.006C10.3713 12.287 10.3713 12.5212 10.3713 12.8021C10.4182 13.9261 10.2308 14.9095 9.85621 15.7524C9.80938 15.8929 9.38791 16.2675 9.24742 16.3612C9.15376 16.4549 9.15376 16.5485 9.24742 16.6422C9.57523 17.0637 10.1372 17.1105 10.9801 16.7827C11.0738 16.7358 11.1674 16.6422 11.1674 16.5485L11.2143 15.7992C11.2611 15.331 11.027 13.5982 12.1509 9.6177C12.1977 9.52404 12.2445 9.43038 12.3382 9.33672C12.6192 9.00891 12.7597 8.58744 12.8065 8.16597C12.9001 7.18255 11.5889 5.63716 13.0875 4.18543C13.1343 4.1386 13.1811 4.1386 13.228 4.18543C13.2748 4.23226 13.2748 4.27909 13.228 4.32592C11.8231 5.68399 13.1811 6.99523 13.0875 8.16597C13.0875 8.54061 12.947 8.86842 12.8065 9.19623C13.4621 9.24306 14.1177 9.19623 14.6797 9.05574C15.9441 8.91525 17.63 9.1494 19.3627 9.52404C19.9715 9.66453 20.6271 9.6177 21.189 9.38355C22.4066 8.86842 23.2964 8.16597 24.0457 7.88499C24.1393 7.83817 24.1862 7.83816 24.2798 7.83816C23.39 6.71425 23.2496 5.44984 23.7179 4.46641C23.7647 4.41958 23.8115 4.37275 23.8583 4.41958C23.9052 4.46641 23.952 4.51324 23.9052 4.56007C23.39 5.73082 23.9052 6.80791 24.6545 7.74451C26.8555 9.94551 27.6516 12.8021 27.2769 15.5183C27.2769 15.6119 27.2301 15.7524 27.1364 15.7992L26.5745 16.5485C26.4808 16.6422 26.5277 16.7827 26.6213 16.8763C26.9023 17.0168 27.2301 17.1105 27.6516 17.0637C27.7921 17.0637 27.9326 16.97 28.0262 16.8763L28.3072 16.5485C28.4009 16.408 28.4477 16.2675 28.4477 16.0802C28.3072 14.8627 28.4477 13.2704 28.635 11.5377C28.6818 11.2099 28.5882 10.8821 28.4945 10.6011C26.996 7.32304 28.4008 4.74739 28.635 3.48298C28.7287 3.06151 28.7287 2.7337 28.7287 2.4059C28.7755 2.49956 28.8691 2.59322 28.916 2.73371C29.3374 3.6703 29.3374 5.12203 29.1033 6.15229C28.8691 7.32304 28.635 9.24306 29.7121 9.75819L29.7589 9.71136C29.3374 8.86842 29.8994 7.4167 29.9931 6.29278C30.0399 4.84105 29.8526 3.90445 29.3374 2.59322ZM0.771203 5.40301C0.677543 5.49667 0.583884 5.59033 0.443394 5.63716C0.396564 5.63716 0.349734 5.68399 0.302904 5.63716C0.209244 5.59033 0.209244 5.5435 0.209244 5.44984C0.209244 5.35618 0.302904 5.26252 0.396564 5.21569C0.490224 5.16886 0.677544 5.12203 0.724373 5.0752C0.771203 5.0752 0.818033 5.0752 0.818033 5.12203C0.864863 5.21569 0.818033 5.30935 0.771203 5.40301ZM3.06587 3.06151C3.01904 2.96785 2.92538 2.87419 2.78489 2.87419C2.78489 2.87419 2.78489 2.87419 2.78489 2.92102C2.78489 2.96785 2.73806 3.06151 2.6444 3.06151C2.59757 3.06151 2.55074 3.01468 2.55074 3.01468C2.50391 3.06151 2.45708 3.15517 2.45708 3.202C2.45708 3.24883 2.45708 3.24883 2.45708 3.29566C2.31659 3.29566 2.1761 3.29566 2.03561 3.24883C2.12927 3.24883 2.22293 3.10834 2.26976 3.01468C2.36342 2.92103 2.36342 2.82737 2.45708 2.78054C2.55074 2.68688 2.69123 2.68688 2.83172 2.73371C2.97221 2.73371 3.1127 2.78054 3.20636 2.78054C3.20636 2.8742 3.15953 2.96785 3.06587 3.06151Z" fill="#4692FD"/>
</svg>
